<?xml version="1.0" ?><!DOCTYPE svg  PUBLIC '-//W3C//DTD SVG 1.1//EN'  'http://www.w3.org/Graphics/SVG/1.1/DTD/svg11.dtd'><svg enable-background="new 0 0 64 64" height="64px" id="Deviantart" version="1.1" viewBox="0 0 64 64" width="64px" xml:space="preserve" xmlns="http://www.w3.org/2000/svg" xmlns:xlink="http://www.w3.org/1999/xlink"><linearGradient gradientTransform="matrix(1 0 0 1 -548 -727)" gradientUnits="userSpaceOnUse" id="Circle_Shadow_1_" x1="612.0303" x2="580.0302" y1="791.001" y2="759.0009"><stop offset="0.3163" style="stop-color:#FFFFFF;stop-opacity:0"/><stop offset="0.3508" style="stop-color:#E9E9E9;stop-opacity:0.0504"/><stop offset="0.4543" style="stop-color:#ACACAC;stop-opacity:0.2018"/><stop offset="0.5572" style="stop-color:#787878;stop-opacity:0.3523"/><stop offset="0.6569" style="stop-color:#4D4D4D;stop-opacity:0.4981"/><stop offset="0.7528" style="stop-color:#2B2B2B;stop-opacity:0.6385"/><stop offset="0.8441" style="stop-color:#131313;stop-opacity:0.7719"/><stop offset="0.9286" style="stop-color:#050505;stop-opacity:0.8956"/><stop offset="1" style="stop-color:#000000"/></linearGradient><polygon enable-background="new    " fill="url(#Circle_Shadow_1_)" id="Circle_Shadow" opacity="0.2" points="64.029,64   64.029,30.059 49,15.029 15.059,48.971 30.088,64 "/><circle cx="32" cy="32" fill="#C3D530" id="Circle" r="24"/><g id="da_t_shadow"><g><g><defs><circle cx="32.029" cy="32" id="SVGID_1_" r="24"/></defs><clipPath id="SVGID_2_"><use overflow="visible" xlink:href="#SVGID_1_"/></clipPath><linearGradient gradientTransform="matrix(1 0 0 1 -548 -727)" gradientUnits="userSpaceOnUse" id="SVGID_3_" x1="609.2129" x2="577.5572" y1="801.1855" y2="746.3561"><stop offset="0" style="stop-color:#FFFFFF;stop-opacity:0"/><stop offset="0.1198" style="stop-color:#FBFBFB;stop-opacity:0.1198"/><stop offset="0.2446" style="stop-color:#EEEEEE;stop-opacity:0.2446"/><stop offset="0.3718" style="stop-color:#D9D9D9;stop-opacity:0.3718"/><stop offset="0.5007" style="stop-color:#BCBCBC;stop-opacity:0.5007"/><stop offset="0.6308" style="stop-color:#969696;stop-opacity:0.6308"/><stop offset="0.762" style="stop-color:#686868;stop-opacity:0.762"/><stop offset="0.8915" style="stop-color:#333333;stop-opacity:0.8915"/><stop offset="1" style="stop-color:#000000"/></linearGradient><path clip-path="url(#SVGID_2_)" d="M79.029,63.898     c0,0-0.325-0.508-1.053-1.224c-0.039-0.039-0.078-0.077-0.119-0.118c-0.026-0.027-0.053-0.055-0.08-0.08     c-0.043-0.043-0.086-0.088-0.133-0.131c-0.031-0.033-0.063-0.063-0.097-0.099c-0.032-0.035-0.067-0.067-0.104-0.104     c-0.035-0.035-0.068-0.069-0.105-0.105c-0.029-0.031-0.063-0.063-0.093-0.096c-0.043-0.043-0.086-0.086-0.134-0.131     c-0.034-0.037-0.07-0.07-0.108-0.107c-0.024-0.026-0.051-0.055-0.078-0.079c-0.039-0.039-0.075-0.078-0.116-0.118     c-0.035-0.033-0.068-0.068-0.104-0.104c-0.04-0.041-0.081-0.08-0.124-0.123c-0.03-0.03-0.061-0.062-0.092-0.092     c-0.03-0.03-0.062-0.062-0.092-0.092c-0.039-0.039-0.078-0.08-0.121-0.121c-0.039-0.041-0.08-0.08-0.123-0.123     c-0.024-0.024-0.049-0.051-0.074-0.074c-0.044-0.045-0.087-0.088-0.135-0.133c-0.029-0.031-0.063-0.063-0.094-0.096     c-0.035-0.033-0.068-0.068-0.105-0.105c-0.035-0.034-0.069-0.069-0.105-0.105c-0.035-0.035-0.07-0.07-0.107-0.105     c-0.033-0.034-0.067-0.069-0.104-0.105c-0.038-0.039-0.077-0.079-0.118-0.119c-0.031-0.029-0.063-0.063-0.097-0.095     c-0.034-0.035-0.067-0.069-0.104-0.104c-0.035-0.035-0.068-0.069-0.105-0.105c-0.035-0.035-0.068-0.07-0.105-0.105     c-0.035-0.035-0.068-0.07-0.105-0.105c-0.036-0.036-0.071-0.072-0.109-0.109c-0.033-0.033-0.066-0.068-0.104-0.104     c-0.038-0.039-0.078-0.078-0.119-0.118c-0.03-0.031-0.063-0.063-0.094-0.095c-0.035-0.035-0.069-0.069-0.106-0.105     c-0.034-0.035-0.067-0.068-0.104-0.104c-0.034-0.037-0.07-0.073-0.108-0.11c-0.038-0.039-0.077-0.077-0.118-0.117     c-0.021-0.022-0.042-0.044-0.063-0.065c-0.049-0.049-0.098-0.098-0.148-0.146c-0.033-0.035-0.07-0.068-0.107-0.105     c-0.027-0.029-0.059-0.061-0.09-0.09c-0.031-0.031-0.063-0.063-0.096-0.098c-0.039-0.039-0.076-0.078-0.117-0.118     c-0.035-0.036-0.07-0.069-0.106-0.106c-0.039-0.039-0.077-0.078-0.118-0.117c-0.031-0.031-0.063-0.063-0.096-0.094     c-0.029-0.031-0.062-0.063-0.094-0.096c-0.043-0.044-0.086-0.088-0.134-0.133c-0.03-0.029-0.062-0.063-0.092-0.092     c-0.035-0.035-0.069-0.07-0.106-0.105c-0.035-0.035-0.07-0.07-0.105-0.107c-0.034-0.034-0.068-0.068-0.104-0.104     c-0.039-0.04-0.08-0.081-0.121-0.122c-0.031-0.029-0.063-0.061-0.094-0.091c-0.033-0.034-0.068-0.069-0.105-0.104     c-0.035-0.035-0.068-0.07-0.105-0.106c-0.035-0.035-0.068-0.069-0.105-0.106c-0.034-0.035-0.068-0.068-0.105-0.104     c-0.035-0.035-0.068-0.069-0.105-0.104c-0.035-0.035-0.068-0.07-0.105-0.106c-0.035-0.035-0.068-0.069-0.105-0.106     c-0.039-0.039-0.08-0.078-0.121-0.121c-0.03-0.028-0.062-0.06-0.092-0.09c-0.035-0.035-0.07-0.07-0.106-0.106     c-0.029-0.03-0.06-0.062-0.091-0.093c-0.041-0.039-0.08-0.08-0.12-0.121c-0.046-0.043-0.089-0.088-0.136-0.133     c-0.021-0.022-0.045-0.045-0.067-0.067c-0.037-0.038-0.074-0.075-0.114-0.114c-0.035-0.036-0.07-0.07-0.107-0.107     c-0.035-0.035-0.068-0.07-0.105-0.105c-0.035-0.035-0.068-0.07-0.105-0.105c-0.035-0.035-0.069-0.069-0.106-0.106     c-0.038-0.039-0.078-0.079-0.12-0.12c-0.029-0.029-0.061-0.061-0.091-0.089c-0.035-0.037-0.071-0.073-0.109-0.11     c-0.034-0.035-0.067-0.068-0.104-0.104s-0.069-0.069-0.106-0.105c-0.035-0.035-0.068-0.07-0.105-0.105     c-0.035-0.034-0.068-0.069-0.105-0.105c-0.035-0.035-0.07-0.07-0.107-0.105c-0.032-0.035-0.067-0.07-0.104-0.105     c-0.039-0.04-0.079-0.079-0.121-0.12c-0.029-0.03-0.061-0.06-0.091-0.09c-0.035-0.037-0.071-0.073-0.108-0.11     c-0.035-0.033-0.066-0.067-0.104-0.104c-0.035-0.036-0.071-0.072-0.109-0.109c-0.034-0.035-0.067-0.07-0.104-0.104     c-0.035-0.035-0.068-0.068-0.104-0.104c-0.038-0.037-0.075-0.076-0.116-0.115c-0.031-0.031-0.063-0.064-0.1-0.1     c-0.029-0.029-0.059-0.061-0.088-0.089c-0.041-0.041-0.08-0.081-0.123-0.123c-0.033-0.034-0.066-0.067-0.104-0.104     c-0.041-0.041-0.082-0.082-0.125-0.123c-0.023-0.024-0.049-0.051-0.074-0.075c-0.041-0.041-0.08-0.082-0.125-0.125     c-0.033-0.033-0.066-0.067-0.104-0.104c-0.038-0.039-0.079-0.078-0.12-0.119c-0.029-0.031-0.06-0.061-0.091-0.091     c-0.034-0.036-0.069-0.071-0.108-0.108c-0.033-0.034-0.068-0.069-0.105-0.104c-0.034-0.034-0.068-0.069-0.105-0.104     c-0.039-0.039-0.078-0.08-0.119-0.119c-0.03-0.031-0.062-0.063-0.094-0.096c-0.035-0.033-0.07-0.07-0.106-0.107     c-0.035-0.033-0.068-0.066-0.104-0.104c-0.035-0.035-0.068-0.07-0.105-0.105c-0.039-0.039-0.078-0.08-0.119-0.119     c-0.025-0.027-0.053-0.055-0.08-0.081c-0.039-0.04-0.078-0.079-0.121-0.121c-0.038-0.038-0.076-0.077-0.117-0.116     c-0.029-0.029-0.061-0.061-0.092-0.092c-0.036-0.035-0.072-0.072-0.111-0.111c-0.029-0.028-0.059-0.06-0.09-0.09     c-0.043-0.043-0.087-0.088-0.133-0.134c-0.029-0.028-0.061-0.06-0.092-0.091c-0.037-0.037-0.072-0.073-0.111-0.112     c-0.029-0.028-0.059-0.058-0.088-0.088c-0.049-0.05-0.1-0.099-0.15-0.149c-0.021-0.021-0.041-0.041-0.063-0.063     c-0.041-0.041-0.08-0.081-0.123-0.123c-0.034-0.033-0.066-0.066-0.104-0.104c-0.041-0.039-0.08-0.08-0.123-0.121     c-0.029-0.031-0.062-0.063-0.094-0.094c-0.035-0.035-0.068-0.07-0.105-0.107c-0.035-0.034-0.068-0.068-0.104-0.104     c-0.039-0.039-0.078-0.078-0.119-0.119c-0.026-0.026-0.055-0.054-0.082-0.082c-0.039-0.039-0.078-0.078-0.119-0.116     c-0.034-0.035-0.067-0.07-0.104-0.106c-0.036-0.035-0.071-0.072-0.108-0.109c-0.033-0.031-0.066-0.064-0.103-0.102     c-0.041-0.04-0.08-0.081-0.123-0.122c-0.026-0.026-0.053-0.053-0.079-0.079c-0.043-0.043-0.087-0.087-0.132-0.132     c-0.03-0.03-0.063-0.063-0.094-0.094c-0.031-0.031-0.062-0.063-0.095-0.095c-0.043-0.045-0.086-0.088-0.133-0.133     c-0.031-0.031-0.063-0.063-0.094-0.093c-0.039-0.04-0.079-0.081-0.122-0.122c-0.024-0.025-0.05-0.051-0.075-0.076     c-0.045-0.045-0.089-0.09-0.137-0.137c-0.025-0.025-0.051-0.051-0.076-0.076c-0.044-0.043-0.088-0.089-0.135-0.135     c-0.027-0.027-0.055-0.055-0.084-0.083c-0.041-0.042-0.084-0.084-0.129-0.13c-0.026-0.025-0.055-0.053-0.082-0.081     c-0.041-0.044-0.084-0.087-0.131-0.132c-0.031-0.029-0.063-0.063-0.096-0.094c-0.033-0.035-0.066-0.068-0.104-0.104     c-0.035-0.034-0.068-0.069-0.105-0.106c-0.035-0.034-0.069-0.069-0.108-0.106c-0.033-0.034-0.065-0.067-0.103-0.104     c-0.041-0.041-0.082-0.08-0.123-0.123c-0.031-0.028-0.061-0.059-0.09-0.088c-0.033-0.033-0.063-0.065-0.1-0.1     c-0.041-0.043-0.084-0.086-0.129-0.129c-0.031-0.031-0.063-0.063-0.096-0.094c-0.033-0.035-0.068-0.07-0.105-0.106     c-0.034-0.034-0.068-0.069-0.105-0.106c-0.039-0.039-0.078-0.08-0.121-0.12c-0.024-0.025-0.051-0.052-0.078-0.078     c-0.043-0.043-0.086-0.086-0.133-0.132c-0.024-0.025-0.052-0.053-0.078-0.079c-0.045-0.046-0.09-0.091-0.137-0.138     c-0.025-0.024-0.053-0.052-0.078-0.078c-0.043-0.043-0.086-0.086-0.131-0.131c-0.031-0.03-0.063-0.063-0.096-0.095     c-0.035-0.034-0.068-0.069-0.105-0.106c-0.035-0.034-0.069-0.069-0.106-0.104c-0.039-0.04-0.078-0.079-0.121-0.121     c-0.028-0.028-0.06-0.059-0.09-0.089c-0.035-0.037-0.071-0.072-0.109-0.109c-0.032-0.033-0.065-0.066-0.104-0.104     c-0.034-0.036-0.071-0.072-0.108-0.11c-0.028-0.027-0.06-0.058-0.088-0.088c-0.045-0.046-0.092-0.091-0.14-0.14     c-0.028-0.027-0.059-0.058-0.088-0.086c-0.035-0.037-0.071-0.071-0.108-0.108c-0.035-0.035-0.067-0.07-0.104-0.105     c-0.035-0.035-0.07-0.07-0.107-0.107c-0.039-0.039-0.078-0.077-0.119-0.117c-0.023-0.025-0.051-0.053-0.078-0.078     c-0.043-0.045-0.088-0.09-0.137-0.137c-0.023-0.025-0.051-0.053-0.078-0.079c-0.043-0.043-0.086-0.086-0.131-0.132     c-0.031-0.029-0.063-0.063-0.096-0.094c-0.033-0.035-0.068-0.069-0.105-0.105c-0.034-0.035-0.068-0.07-0.105-0.104     c-0.039-0.039-0.078-0.08-0.119-0.119c-0.026-0.027-0.053-0.056-0.08-0.082c-0.038-0.039-0.077-0.078-0.118-0.117     c-0.039-0.04-0.08-0.081-0.121-0.122c-0.03-0.029-0.062-0.06-0.093-0.091c-0.03-0.03-0.062-0.063-0.094-0.094     c-0.043-0.044-0.086-0.089-0.133-0.134c-0.029-0.028-0.061-0.061-0.092-0.092c-0.041-0.041-0.082-0.082-0.127-0.125     c-0.021-0.021-0.039-0.041-0.061-0.063c-0.053-0.053-0.104-0.104-0.16-0.16c-0.021-0.021-0.043-0.043-0.064-0.064     c-0.045-0.045-0.092-0.09-0.139-0.138c-0.023-0.024-0.051-0.05-0.074-0.075c-0.045-0.045-0.09-0.09-0.137-0.137     c-0.025-0.025-0.051-0.051-0.078-0.077c-0.043-0.044-0.088-0.089-0.135-0.134c-0.029-0.029-0.062-0.063-0.092-0.092     c-0.035-0.037-0.07-0.07-0.105-0.107c-0.035-0.035-0.07-0.07-0.107-0.105c-0.033-0.034-0.067-0.069-0.104-0.104     c-0.035-0.034-0.068-0.069-0.104-0.106c-0.035-0.033-0.07-0.068-0.105-0.105c-0.039-0.038-0.078-0.078-0.121-0.117     c-0.031-0.031-0.063-0.063-0.096-0.098c-0.033-0.033-0.066-0.066-0.104-0.104c-0.033-0.035-0.068-0.07-0.105-0.105     c-0.034-0.035-0.067-0.07-0.104-0.105c-0.034-0.035-0.067-0.069-0.104-0.104c-0.039-0.041-0.08-0.08-0.123-0.123     c-0.025-0.024-0.051-0.052-0.078-0.078c-0.043-0.043-0.088-0.088-0.135-0.133c-0.023-0.026-0.051-0.054-0.076-0.078     c-0.045-0.045-0.09-0.09-0.137-0.135c-0.028-0.031-0.06-0.062-0.09-0.091c-0.035-0.037-0.072-0.073-0.109-0.11     c-0.033-0.035-0.068-0.067-0.104-0.104c-0.034-0.035-0.067-0.067-0.104-0.104c-0.029-0.03-0.062-0.062-0.094-0.095     c-0.048-0.049-0.099-0.098-0.148-0.147c-0.021-0.021-0.041-0.041-0.063-0.063c-0.039-0.039-0.078-0.077-0.121-0.118     c-0.035-0.035-0.068-0.07-0.105-0.106c-0.039-0.04-0.078-0.078-0.119-0.119c-0.025-0.027-0.055-0.054-0.08-0.08     c-0.043-0.045-0.088-0.088-0.135-0.134c-0.025-0.026-0.053-0.053-0.078-0.079c-0.047-0.048-0.096-0.097-0.146-0.146     c-0.021-0.022-0.045-0.048-0.068-0.07c-0.039-0.038-0.078-0.077-0.119-0.116c-0.033-0.035-0.066-0.07-0.104-0.104     c-0.035-0.037-0.07-0.072-0.107-0.106c-0.035-0.037-0.07-0.072-0.107-0.109s-0.076-0.076-0.117-0.115     c-0.03-0.031-0.063-0.063-0.092-0.094c-0.035-0.035-0.07-0.07-0.107-0.105c-0.034-0.036-0.069-0.07-0.108-0.107     c-0.032-0.035-0.067-0.069-0.104-0.104c-0.033-0.035-0.066-0.067-0.104-0.104c-0.035-0.035-0.07-0.07-0.107-0.107     c-0.034-0.035-0.067-0.068-0.104-0.104c-0.035-0.037-0.069-0.071-0.106-0.106c-0.035-0.037-0.069-0.072-0.107-0.108     c-0.037-0.037-0.076-0.076-0.117-0.115c-0.023-0.025-0.051-0.054-0.078-0.08c-0.039-0.039-0.078-0.08-0.119-0.121     c-0.045-0.043-0.09-0.088-0.137-0.135c-0.021-0.021-0.043-0.043-0.064-0.064c-0.043-0.043-0.086-0.086-0.131-0.13     c-0.026-0.026-0.055-0.054-0.08-0.081c-0.045-0.045-0.09-0.09-0.139-0.137c-0.027-0.029-0.058-0.06-0.088-0.088     c-0.035-0.037-0.072-0.072-0.109-0.11c-0.031-0.03-0.061-0.062-0.092-0.093c-0.043-0.043-0.086-0.086-0.131-0.129     c-0.027-0.028-0.056-0.058-0.084-0.084c-0.043-0.045-0.086-0.088-0.133-0.133c-0.029-0.029-0.061-0.062-0.092-0.091     c-0.059-0.06-0.094-0.094-0.131-0.13c-0.035-0.035-0.069-0.07-0.106-0.105c-0.039-0.041-0.079-0.08-0.121-0.121     c-0.026-0.025-0.052-0.053-0.079-0.08c-0.043-0.043-0.086-0.086-0.132-0.131c-0.026-0.025-0.053-0.055-0.081-0.082     c-0.043-0.043-0.086-0.086-0.132-0.131c-0.03-0.031-0.063-0.063-0.095-0.095c-0.035-0.034-0.069-0.069-0.106-0.106     c-0.034-0.033-0.067-0.067-0.104-0.104c-0.034-0.036-0.069-0.072-0.106-0.109c-0.034-0.033-0.065-0.065-0.104-0.103     c-0.039-0.041-0.08-0.081-0.123-0.123c-0.025-0.026-0.053-0.052-0.079-0.08c-0.044-0.043-0.087-0.086-0.132-0.131     c-0.025-0.027-0.053-0.053-0.082-0.081c-0.043-0.043-0.086-0.087-0.131-0.132c-0.025-0.026-0.051-0.052-0.078-0.079     c-0.045-0.044-0.088-0.089-0.137-0.135c-0.024-0.027-0.053-0.054-0.08-0.081c-0.045-0.047-0.094-0.094-0.144-0.143     c-0.021-0.021-0.04-0.041-0.062-0.062c-0.045-0.044-0.09-0.088-0.137-0.134c-0.029-0.032-0.063-0.064-0.097-0.097     c-0.037-0.038-0.075-0.075-0.115-0.114c-0.028-0.031-0.062-0.062-0.093-0.093c-0.04-0.041-0.081-0.082-0.125-0.125     c-0.029-0.029-0.059-0.058-0.089-0.088c-0.038-0.04-0.077-0.079-0.118-0.119c-0.031-0.031-0.063-0.062-0.096-0.094     c-0.036-0.039-0.075-0.078-0.116-0.118c-1.987-2.004-7.312-5.849-17.909-4.332L28.133,26.4l-0.051,0.006l-0.056-0.113     l-0.051,0.006l-0.055-0.112l-0.051,0.006l-0.055-0.112l-0.051,0.006l-0.055-0.112l-0.052,0.006l-0.055-0.111l-0.051,0.006     l-0.056-0.113l-0.052,0.006l-0.055-0.112l-0.051,0.006l-0.055-0.112l-0.051,0.006l-0.055-0.112l-0.052,0.006l-0.055-0.111     l-0.051,0.006l-0.055-0.112l-0.051,0.006l-0.056-0.113l-0.051,0.006l-0.055-0.112l-0.051,0.006l-0.055-0.112l-0.052,0.006     l-0.055-0.112l-0.051,0.006l-0.055-0.112l-0.051,0.006l-0.056-0.113l-0.051,0.006l-0.055-0.112l-0.052,0.006l-0.055-0.112     l-0.051,0.006l-0.055-0.112l-0.05,0.006l-0.055-0.112l-0.052,0.006l-0.055-0.112l-0.051,0.006l-0.056-0.113l-0.052,0.006     L25.55,23.82l-0.05,0.006l-0.055-0.112l-4.281,0.487l1.746,3.569c-9.026,3.728-5.026,12.515-5.026,12.515l0.055-0.016     c0.032,0.076,0.052,0.121,0.052,0.121l0.055-0.017c0.032,0.077,0.052,0.122,0.052,0.122l0.055-0.018     c0.032,0.078,0.052,0.123,0.052,0.123l0.055-0.017c0.032,0.077,0.052,0.122,0.052,0.122l0.055-0.016     c0.032,0.076,0.051,0.121,0.051,0.121l0.055-0.018c0.032,0.077,0.052,0.122,0.052,0.122L18.58,40.9     c0.032,0.076,0.052,0.121,0.052,0.121l0.055-0.016c0.032,0.077,0.051,0.121,0.051,0.121l0.054-0.016     c0.032,0.078,0.052,0.123,0.052,0.123l0.055-0.017c0.032,0.076,0.052,0.121,0.052,0.121l0.054-0.016     c0.032,0.077,0.052,0.122,0.052,0.122l0.055-0.018c0.032,0.078,0.052,0.123,0.052,0.123l0.055-0.017     c0.032,0.077,0.051,0.121,0.051,0.121l0.055-0.017c0.032,0.077,0.052,0.123,0.052,0.123l0.055-0.018     c0.032,0.076,0.052,0.122,0.052,0.122l0.055-0.017c0.032,0.076,0.052,0.121,0.052,0.121l0.055-0.016     c0.032,0.077,0.051,0.121,0.051,0.121l0.054-0.016c0.032,0.078,0.052,0.123,0.052,0.123l0.055-0.018     c0.032,0.077,0.052,0.121,0.052,0.121l0.054-0.016c0.032,0.076,0.052,0.121,0.052,0.121l0.055-0.016     c0.031,0.077,0.051,0.121,0.051,0.121l0.055-0.016c0.032,0.076,0.052,0.121,0.052,0.121l0.055-0.017     c0.032,0.077,0.052,0.123,0.052,0.123l0.055-0.017c0.032,0.076,0.051,0.121,0.051,0.121l0.054-0.018     c0.032,0.078,0.052,0.123,0.052,0.123l0.056-0.016c0.031,0.076,0.051,0.121,0.051,0.121l0.054-0.017     c0.032,0.078,0.052,0.123,0.052,0.123l0.055-0.017c0.032,0.076,0.052,0.121,0.052,0.121l0.054-0.018     c0.032,0.078,0.052,0.123,0.052,0.123l0.055-0.017c0.032,0.077,0.052,0.122,0.052,0.122l0.055-0.016     c0.032,0.075,0.052,0.121,0.052,0.121l0.054-0.017c0.032,0.078,0.052,0.122,0.052,0.122l0.055-0.016     c0.032,0.076,0.051,0.119,0.051,0.119l0.054-0.016c0.032,0.078,0.052,0.123,0.052,0.123l0.056-0.016     c0.032,0.076,0.051,0.121,0.051,0.121l0.054-0.017c0.032,0.078,0.052,0.123,0.052,0.123l0.055-0.017     c0.032,0.076,0.051,0.121,0.051,0.121l0.055-0.018c0.032,0.078,0.052,0.123,0.052,0.123l0.055-0.018     c0.032,0.078,0.052,0.123,0.052,0.123l0.055-0.017c0.031,0.076,0.051,0.121,0.051,0.121l0.055-0.017     c0.032,0.078,0.052,0.123,0.052,0.123l0.055-0.018c0.032,0.078,0.051,0.121,0.051,0.121l0.054-0.016     c0.032,0.078,0.052,0.123,0.052,0.123l0.055-0.016c0.032,0.075,0.051,0.12,0.051,0.12l0.054-0.016     c0.032,0.077,0.052,0.121,0.052,0.121l0.055-0.017c0.032,0.076,0.052,0.123,0.052,0.123l0.055-0.018     c0.032,0.076,0.052,0.123,0.052,0.123l0.055-0.018c0.032,0.078,0.051,0.121,0.051,0.121l0.055-0.017     c0.032,0.078,0.052,0.123,0.052,0.123l0.055-0.017c0.032,0.078,0.052,0.123,0.052,0.123l0.055-0.018     c0.032,0.078,0.051,0.121,0.051,0.121l0.054-0.016c0.032,0.078,0.052,0.121,0.052,0.121l0.054-0.017     c0.032,0.078,0.052,0.123,0.052,0.123l0.056-0.017c0.031,0.076,0.051,0.121,0.051,0.121l0.054-0.018     c0.032,0.078,0.052,0.123,0.052,0.123l0.055-0.016c0.032,0.076,0.051,0.121,0.051,0.121l0.055-0.017     c0.032,0.076,0.052,0.122,0.052,0.122l0.055-0.018c0.032,0.078,0.052,0.123,0.052,0.123l0.054-0.017     c0.032,0.078,0.052,0.122,0.052,0.122l0.055-0.016c0.032,0.076,0.052,0.121,0.052,0.121l0.055-0.016     c0.032,0.076,0.051,0.12,0.051,0.12l0.054-0.016c0.032,0.077,0.052,0.123,0.052,0.123l0.056-0.017     c0.032,0.076,0.051,0.121,0.051,0.121l0.054-0.018c0.032,0.078,0.052,0.123,0.052,0.123l0.055-0.018     c0.032,0.078,0.052,0.123,0.052,0.123l0.055-0.017c0.032,0.076,0.052,0.121,0.052,0.121l0.055-0.017     c0.032,0.078,0.052,0.123,0.052,0.123l0.055-0.017c0.032,0.077,0.052,0.122,0.052,0.122l0.055-0.016     c0.032,0.076,0.052,0.121,0.052,0.121l0.055-0.017c0.032,0.077,0.051,0.121,0.051,0.121l0.054-0.017     c0.032,0.078,0.052,0.123,0.052,0.123l0.055-0.017c0.032,0.077,0.051,0.121,0.051,0.121l0.054-0.017     c0.032,0.078,0.052,0.123,0.052,0.123l0.055-0.018c0.032,0.077,0.052,0.122,0.052,0.122l0.055-0.016     c0.032,0.075,0.052,0.12,0.052,0.12l0.055-0.016c0.032,0.077,0.052,0.122,0.052,0.122l0.055-0.017     c0.032,0.078,0.051,0.121,0.051,0.121l0.054-0.016c0.032,0.077,0.052,0.121,0.052,0.121l0.054-0.016     c0.032,0.076,0.052,0.122,0.052,0.122l0.055-0.017c0.032,0.078,0.052,0.123,0.052,0.123l0.055-0.017     c0.032,0.077,0.051,0.121,0.051,0.121l0.055-0.017c0.032,0.076,0.051,0.121,0.051,0.121l0.055-0.017     c0.032,0.078,0.052,0.123,0.052,0.123l0.055-0.017c0.032,0.076,0.052,0.121,0.052,0.121l0.054-0.016     c0.032,0.077,0.052,0.122,0.052,0.122l0.055-0.017c0.032,0.078,0.051,0.121,0.051,0.121l0.054-0.017     c0.032,0.078,0.052,0.123,0.052,0.123l0.055-0.017c0.032,0.076,0.051,0.121,0.051,0.121l0.055-0.017     c0.032,0.077,0.052,0.122,0.052,0.122l0.055-0.016c0.032,0.076,0.052,0.121,0.052,0.121l0.055-0.017     c0.032,0.077,0.051,0.121,0.051,0.121l0.055-0.016c0.032,0.077,0.052,0.122,0.052,0.122l0.055-0.016     c0.032,0.076,0.051,0.121,0.051,0.121l0.054-0.017c0.032,0.077,0.052,0.122,0.052,0.122l0.055-0.016     C27.98,50.297,28,50.342,28,50.342l0.055-0.016c0.032,0.076,0.052,0.122,0.052,0.122l0.055-0.017     c0.032,0.077,0.052,0.123,0.052,0.123l0.055-0.018c0.032,0.077,0.051,0.121,0.051,0.121l0.054-0.018     c0.032,0.078,0.052,0.123,0.052,0.123l0.055-0.016c0.032,0.077,0.051,0.121,0.051,0.121l0.054-0.016     c0.032,0.078,0.052,0.123,0.052,0.123l0.055-0.018c0.032,0.077,0.051,0.121,0.051,0.121l0.055-0.016     c0.032,0.076,0.052,0.121,0.052,0.121l0.055-0.016c0.032,0.076,0.052,0.121,0.052,0.121l0.055-0.016     c0.032,0.076,0.052,0.121,0.052,0.121l0.054-0.017c0.032,0.077,0.052,0.123,0.052,0.123l0.055-0.017     c0.032,0.076,0.051,0.121,0.051,0.121l0.055-0.018c0.032,0.078,0.052,0.123,0.052,0.123l0.055-0.016     c0.032,0.076,0.051,0.121,0.051,0.121l0.055-0.017c0.032,0.076,0.051,0.121,0.051,0.121l0.055-0.017     c0.032,0.078,0.052,0.123,0.052,0.123l0.055-0.018c0.032,0.078,0.052,0.123,0.052,0.123l0.054-0.017     c0.032,0.077,0.052,0.122,0.052,0.122l0.055-0.016c0.032,0.075,0.051,0.121,0.051,0.121l0.054-0.017     c0.032,0.077,0.052,0.122,0.052,0.122l0.055-0.016c0.032,0.076,0.051,0.121,0.051,0.121l0.055-0.018     c0.032,0.077,0.052,0.123,0.052,0.123l0.055-0.018c0.032,0.078,0.052,0.123,0.052,0.123l0.055-0.017     c0.032,0.076,0.052,0.121,0.052,0.121l0.055-0.017c0.032,0.078,0.052,0.123,0.052,0.123l0.055-0.018     c0.032,0.078,0.051,0.121,0.051,0.121l0.054-0.016c0.032,0.078,0.052,0.121,0.052,0.121l0.055-0.017     c0.032,0.078,0.052,0.123,0.052,0.123l0.054-0.017c0.032,0.078,0.052,0.123,0.052,0.123l0.055-0.017     c0.032,0.077,0.051,0.12,0.051,0.12l0.055-0.016c0.032,0.076,0.051,0.121,0.051,0.121l0.054-0.016     c0.032,0.077,0.052,0.122,0.052,0.122L31.46,53.7c0.032,0.075,0.052,0.121,0.052,0.121l0.054-0.017     C31.59,53.955,31.61,54,31.61,54l0.055-0.016c0.032,0.076,0.051,0.121,0.051,0.121l0.055-0.018     c0.032,0.078,0.052,0.123,0.052,0.123l0.055-0.018c0.032,0.078,0.052,0.121,0.052,0.121l0.055-0.016     c0.032,0.077,0.052,0.122,0.052,0.122l0.054-0.017c0.032,0.078,0.052,0.123,0.052,0.123l0.055-0.016     c0.032,0.075,0.051,0.119,0.051,0.119l0.055-0.016c0.032,0.076,0.052,0.123,0.052,0.123l0.055-0.018     c0.032,0.077,0.051,0.121,0.051,0.121l0.056-0.016c0.031,0.076,0.051,0.122,0.051,0.122l0.057-0.017     c0.032,0.077,0.052,0.123,0.052,0.123l0.056-0.018c0.033,0.077,0.053,0.122,0.053,0.122l0.054-0.017     c0.032,0.078,0.052,0.121,0.052,0.121l0.055-0.016c0.033,0.077,0.053,0.121,0.053,0.121l0.055-0.016     c0.031,0.078,0.053,0.123,0.053,0.123l0.056-0.018c0.032,0.077,0.052,0.122,0.052,0.122l0.055-0.017     c0.032,0.076,0.053,0.121,0.053,0.121l0.056-0.016c0.031,0.077,0.052,0.121,0.052,0.121l0.057-0.016     c0.031,0.076,0.051,0.121,0.051,0.121l0.056-0.017c0.032,0.077,0.052,0.123,0.052,0.123l0.055-0.017     c0.033,0.076,0.054,0.121,0.054,0.121l0.054-0.018c0.032,0.078,0.053,0.123,0.053,0.123l0.057-0.016     c0.031,0.076,0.052,0.121,0.052,0.121l0.056-0.016c0.031,0.075,0.051,0.12,0.051,0.12l0.057-0.016     c0.032,0.077,0.053,0.122,0.053,0.122l0.055-0.018c0.031,0.078,0.053,0.123,0.053,0.123l0.055-0.017     c0.032,0.077,0.053,0.122,0.053,0.122l0.056-0.016c0.03,0.075,0.052,0.121,0.052,0.121l0.055-0.017     c0.032,0.077,0.053,0.122,0.053,0.122l0.055-0.016c0.031,0.076,0.052,0.119,0.052,0.119l0.056-0.016     c0.033,0.077,0.054,0.122,0.054,0.122l0.054-0.017c0.032,0.078,0.053,0.123,0.053,0.123l0.055-0.017     c0.031,0.076,0.053,0.121,0.053,0.121l0.055-0.017c0.031,0.078,0.053,0.123,0.053,0.123l0.056-0.018     c0.03,0.078,0.052,0.123,0.052,0.123l0.055-0.018c0.032,0.078,0.053,0.123,0.053,0.123l0.057-0.017     c0.031,0.076,0.053,0.121,0.053,0.121l0.053-0.017c0.033,0.078,0.054,0.121,0.054,0.121l0.055-0.016     c0.031,0.076,0.052,0.121,0.052,0.121l0.057-0.016c0.031,0.076,0.051,0.121,0.051,0.121l0.057-0.016     c0.031,0.077,0.051,0.122,0.051,0.122l0.056-0.016c0.032,0.075,0.053,0.121,0.053,0.121l0.056-0.017     c0.031,0.076,0.053,0.123,0.053,0.123l0.055-0.018c0.031,0.077,0.053,0.123,0.053,0.123l0.055-0.018     c0.031,0.078,0.052,0.121,0.052,0.121l0.055-0.017c0.033,0.078,0.054,0.123,0.054,0.123l0.055-0.017     c0.031,0.076,0.053,0.121,0.053,0.121l0.055-0.016c0.031,0.076,0.053,0.121,0.053,0.121l0.054-0.016     c0.032,0.078,0.053,0.121,0.053,0.121l0.056-0.017c0.033,0.078,0.053,0.123,0.053,0.123l0.055-0.017     c0.033,0.076,0.053,0.121,0.053,0.121l0.055-0.016c0.033,0.076,0.054,0.121,0.054,0.121l0.056-0.016     c0.03,0.076,0.051,0.121,0.051,0.121l0.056-0.017c0.032,0.076,0.052,0.122,0.052,0.122l0.057-0.017     c0.031,0.077,0.051,0.122,0.051,0.122l0.056-0.016c0.032,0.076,0.054,0.121,0.054,0.121l0.053-0.016     c0.033,0.078,0.053,0.121,0.053,0.121l0.057-0.016c0.031,0.076,0.053,0.121,0.053,0.121l0.054-0.017     c0.032,0.078,0.053,0.121,0.053,0.121l0.056-0.017c0.03,0.077,0.051,0.123,0.051,0.123l0.056-0.018     c0.032,0.078,0.052,0.123,0.052,0.123l0.057-0.018c0.031,0.078,0.052,0.123,0.052,0.123l0.055-0.017     c0.032,0.076,0.054,0.121,0.054,0.121l0.055-0.017c0.031,0.078,0.052,0.123,0.052,0.123l0.056-0.017     c0.031,0.077,0.051,0.122,0.051,0.122l0.057-0.016c0.031,0.076,0.052,0.121,0.052,0.121l0.056-0.017     c0.032,0.077,0.053,0.121,0.053,0.121L38.688,61c0.033,0.077,0.054,0.122,0.054,0.122l0.055-0.017     c0.032,0.078,0.054,0.123,0.054,0.123l0.055-0.018c0.031,0.077,0.052,0.122,0.052,0.122l0.056-0.017     c0.031,0.076,0.051,0.121,0.051,0.121l0.057-0.016c0.031,0.077,0.052,0.122,0.052,0.122l0.056-0.017     c0.031,0.078,0.053,0.123,0.053,0.123l0.055-0.017c0.031,0.076,0.053,0.12,0.053,0.12l0.055-0.016     c0.031,0.076,0.052,0.121,0.052,0.121l0.055-0.016c0.032,0.077,0.054,0.121,0.054,0.121l0.055-0.016     c0.033,0.076,0.053,0.121,0.053,0.121l0.055-0.016c0.031,0.077,0.051,0.123,0.051,0.123l0.058-0.018     c0.03,0.076,0.052,0.122,0.052,0.122l0.057-0.017c0.03,0.076,0.051,0.121,0.051,0.121l0.056-0.016     c0.032,0.077,0.052,0.121,0.052,0.121l0.055-0.016c0.033,0.076,0.054,0.121,0.054,0.121l0.055-0.017     c0.032,0.077,0.052,0.122,0.052,0.122l0.055-0.018c0.033,0.078,0.053,0.123,0.053,0.123l0.057-0.017     c0.031,0.077,0.051,0.122,0.051,0.122l0.056-0.016c0.03,0.078,0.052,0.121,0.052,0.121l0.055-0.017     c0.033,0.077,0.053,0.122,0.053,0.122l0.056-0.016c0.032,0.076,0.052,0.121,0.052,0.121l0.055-0.016     c0.033,0.076,0.054,0.121,0.054,0.121l0.056-0.018c0.03,0.078,0.051,0.123,0.051,0.123l0.057-0.017     c0.031,0.076,0.052,0.121,0.052,0.121l0.056-0.016c0.031,0.077,0.051,0.122,0.051,0.122l0.056-0.018     c0.033,0.078,0.054,0.123,0.054,0.123l0.055-0.017c0.031,0.077,0.053,0.122,0.053,0.122l0.055-0.016     c0.031,0.075,0.053,0.121,0.053,0.121l0.056-0.017c0.03,0.077,0.051,0.121,0.051,0.121l0.056-0.017     c0.032,0.076,0.053,0.121,0.053,0.121l0.055-0.016c0.031,0.077,0.053,0.122,0.053,0.122l0.055-0.017     c0.033,0.078,0.054,0.123,0.054,0.123l0.055-0.017c0.031,0.076,0.052,0.121,0.052,0.121l0.055-0.017     c0.033,0.078,0.053,0.123,0.053,0.123l0.057-0.018c0.031,0.078,0.051,0.123,0.051,0.123l0.056-0.018     c0.032,0.078,0.053,0.121,0.053,0.121l0.056-0.017c0.03,0.078,0.051,0.123,0.051,0.123l0.055-0.017     c0.031,0.078,0.053,0.121,0.053,0.121l0.055-0.016c0.033,0.076,0.053,0.121,0.053,0.121l0.056-0.016     c0.031,0.076,0.052,0.121,0.052,0.121l0.055-0.016c0.033,0.077,0.053,0.122,0.053,0.122l0.057-0.016     c0.031,0.075,0.053,0.121,0.053,0.121l0.056-0.017c0.03,0.076,0.051,0.121,0.051,0.121l0.056-0.016     c0.03,0.077,0.051,0.123,0.051,0.123l0.057-0.018c0.032,0.078,0.053,0.121,0.053,0.121l0.055-0.017     c0.031,0.078,0.052,0.123,0.052,0.123l0.055-0.017c0.033,0.076,0.054,0.121,0.054,0.121l0.055-0.016     c0.031,0.076,0.053,0.121,0.053,0.121l0.055-0.016c0.031,0.076,0.053,0.121,0.053,0.121l0.055-0.017     c0.031,0.078,0.052,0.123,0.052,0.123l0.056-0.017c0.033,0.076,0.053,0.121,0.053,0.121l0.055-0.016     c0.032,0.076,0.053,0.121,0.053,0.121l0.055-0.018c0.031,0.078,0.053,0.123,0.053,0.123l0.057-0.017     c0.03,0.076,0.051,0.122,0.051,0.122l0.056-0.017c0.032,0.077,0.052,0.122,0.052,0.122l0.055-0.016     c0.033,0.076,0.053,0.121,0.053,0.121l0.056-0.016c0.032,0.076,0.054,0.121,0.054,0.121l0.055-0.016     c0.031,0.076,0.052,0.121,0.052,0.121l0.056-0.017c0.031,0.078,0.051,0.121,0.051,0.121l0.057-0.017     c0.031,0.077,0.052,0.123,0.052,0.123l0.056-0.018c0.031,0.078,0.053,0.123,0.053,0.123l0.055-0.018     c0.031,0.078,0.053,0.123,0.053,0.123l0.055-0.017c0.031,0.076,0.053,0.121,0.053,0.121l0.055-0.017     c0.032,0.078,0.053,0.123,0.053,0.123l0.055-0.017c0.031,0.077,0.052,0.122,0.052,0.122l0.055-0.016     c0.032,0.076,0.052,0.119,0.052,0.119l0.057-0.016c0.029,0.078,0.052,0.123,0.052,0.123l0.056-0.018     c0.031,0.078,0.053,0.121,0.053,0.121L46,68.168c0.031,0.077,0.052,0.122,0.052,0.122l0.056-0.017     c0.033,0.078,0.054,0.123,0.054,0.123l0.055-0.018c0.032,0.077,0.054,0.122,0.054,0.122l0.055-0.016     c0.031,0.075,0.052,0.121,0.052,0.121l0.054-0.017c0.032,0.077,0.053,0.121,0.053,0.121l0.056-0.016     c0.03,0.078,0.052,0.123,0.052,0.123l0.057-0.018c0.03,0.078,0.051,0.121,0.051,0.121l0.056-0.016     c0.032,0.077,0.052,0.122,0.052,0.122l0.055-0.017c0.033,0.076,0.054,0.121,0.054,0.121l0.055-0.016     c0.032,0.076,0.054,0.122,0.054,0.122l0.055-0.017c0.031,0.076,0.052,0.123,0.052,0.123l0.056-0.018     c0.031,0.077,0.051,0.121,0.051,0.121l0.057-0.018c0.029,0.078,0.052,0.123,0.052,0.123l0.056-0.016     c0.031,0.077,0.053,0.121,0.053,0.121l0.055-0.016c0.031,0.076,0.053,0.121,0.053,0.121l0.055-0.017     c0.031,0.077,0.052,0.122,0.052,0.122l0.056-0.018c0.032,0.078,0.053,0.123,0.053,0.123l0.055-0.016     c0.033,0.076,0.053,0.121,0.053,0.121l0.055-0.016c0.032,0.076,0.053,0.121,0.053,0.121l0.056-0.016     c0.031,0.076,0.052,0.121,0.052,0.121l0.057-0.016c0.031,0.077,0.051,0.121,0.051,0.121l0.056-0.018     c0.032,0.077,0.052,0.123,0.052,0.123l0.055-0.017c0.033,0.077,0.054,0.122,0.054,0.122l0.056-0.016     c0.031,0.076,0.051,0.121,0.051,0.121l0.055-0.017c0.033,0.078,0.053,0.122,0.053,0.122l0.055-0.018     c0.032,0.078,0.053,0.121,0.053,0.121l0.056-0.016c0.031,0.078,0.052,0.123,0.052,0.123l0.055-0.016     c0.033,0.076,0.053,0.121,0.053,0.121l0.056-0.018c0.032,0.077,0.052,0.122,0.052,0.122l0.056-0.017     c0.032,0.076,0.053,0.121,0.053,0.121l0.056-0.016c0.032,0.077,0.053,0.122,0.053,0.122l0.055-0.016     c0.031,0.077,0.051,0.122,0.051,0.122l0.057-0.016c0.031,0.075,0.052,0.12,0.052,0.12l0.055-0.016     c0.033,0.077,0.054,0.122,0.054,0.122l0.055-0.018c0.031,0.078,0.053,0.121,0.053,0.121l0.055-0.016     c0.031,0.076,0.053,0.122,0.053,0.122l0.056-0.017c0.03,0.077,0.051,0.123,0.051,0.123l0.056-0.018     c0.032,0.077,0.053,0.122,0.053,0.122l13.771-3.963l-2.012-4.081l0.034-0.012l0.06,0.121l0.048-0.015l0.059,0.119l0.049-0.015     l0.059,0.121l0.049-0.015l0.06,0.119l0.049-0.015l0.06,0.121l0.047-0.016l0.061,0.121l0.047-0.015l0.061,0.12l0.048-0.014     l0.059,0.118l0.05-0.015l0.059,0.119l0.047-0.014l0.061,0.119l0.049-0.014l0.06,0.12l0.047-0.015l0.06,0.121l0.049-0.016     l0.059,0.12l0.047-0.015l0.061,0.119l0.049-0.014l0.061,0.12l0.047-0.015l0.06,0.121l0.048-0.015l0.059,0.119l0.049-0.015     l0.059,0.119l0.048-0.014l0.062,0.119l0.047-0.014l0.059,0.119l0.047-0.015l0.062,0.121l0.048-0.015l0.061,0.119l0.047-0.014     l0.06,0.119l0.048-0.015l0.059,0.12l0.049-0.014l0.06,0.118l0.049-0.014l0.06,0.12l0.047-0.014l0.061,0.119l0.047-0.014     l0.061,0.119l0.047-0.014l0.061,0.119l0.049-0.015l0.059,0.119l0.047-0.015l0.061,0.121l0.047-0.016l0.061,0.121l0.047-0.016     l0.061,0.121l0.049-0.015l0.059,0.119L79.029,63.898z" enable-background="new    " fill="url(#SVGID_3_)" opacity="0.2"/></g></g></g><path d="M27.87,28.641c6.792-1.952,12.462,2.039,12.462,2.039l-4.675,1.262l-1.347-2.501  c-1.27-0.231-2.709-0.306-4.246-0.048l3.182,6.466L47,31.899c0,0-4.986-7.832-19.861-5.303c-0.088,0.016-0.164,0.036-0.251,0.051  l-1.443-2.933L21.164,24.2l1.746,3.569c-9.026,3.728-5.026,12.515-5.026,12.515l13.771-3.964L27.87,28.641z M21.608,35.734  c0,0-1.326-2.93,2.535-5.441l2.054,4.203L21.608,35.734z" fill="#FFFFFF" id="da"/></svg>