<?xml version="1.0" ?><!DOCTYPE svg  PUBLIC '-//W3C//DTD SVG 1.1//EN'  'http://www.w3.org/Graphics/SVG/1.1/DTD/svg11.dtd'><svg enable-background="new 0 0 64 64" height="64px" id="Soundcloud" version="1.1" viewBox="0 0 64 64" width="64px" xml:space="preserve" xmlns="http://www.w3.org/2000/svg" xmlns:xlink="http://www.w3.org/1999/xlink"><linearGradient gradientTransform="matrix(1 0 0 -1 -1918 -2480)" gradientUnits="userSpaceOnUse" id="Circle_Shadow_1_" x1="1982.0313" x2="1950.0313" y1="-2543.999" y2="-2511.999"><stop offset="0.3163" style="stop-color:#FFFFFF;stop-opacity:0"/><stop offset="0.3508" style="stop-color:#E9E9E9;stop-opacity:0.0504"/><stop offset="0.4543" style="stop-color:#ACACAC;stop-opacity:0.2018"/><stop offset="0.5572" style="stop-color:#787878;stop-opacity:0.3523"/><stop offset="0.6569" style="stop-color:#4D4D4D;stop-opacity:0.4981"/><stop offset="0.7528" style="stop-color:#2B2B2B;stop-opacity:0.6385"/><stop offset="0.8441" style="stop-color:#131313;stop-opacity:0.7719"/><stop offset="0.9286" style="stop-color:#050505;stop-opacity:0.8956"/><stop offset="1" style="stop-color:#000000"/></linearGradient><polygon enable-background="new    " fill="url(#Circle_Shadow_1_)" id="Circle_Shadow" opacity="0.2" points="64.029,64   64.029,30.059 49,15.029 15.059,48.971 30.088,64 "/><circle cx="32" cy="32" fill="#FF7700" id="Circle" r="24"/><g id="cloud_shadow"><g><defs><circle cx="32.029" cy="32" id="SVGID_1_" r="24"/></defs><clipPath id="SVGID_2_"><use overflow="visible" xlink:href="#SVGID_1_"/></clipPath><linearGradient gradientTransform="matrix(1 0 0 -1 -274 -299)" gradientUnits="userSpaceOnUse" id="SVGID_3_" x1="331.5264" x2="310.582" y1="-378.3555" y2="-320.8112"><stop offset="0.449" style="stop-color:#000000;stop-opacity:0"/><stop offset="0.495" style="stop-color:#000000;stop-opacity:0.1158"/><stop offset="0.8469" style="stop-color:#000000"/></linearGradient><path clip-path="url(#SVGID_2_)" d="M79.8,65.124    c-0.034-0.037-0.069-0.072-0.106-0.106c-0.034-0.037-0.069-0.072-0.106-0.106c-0.035-0.037-0.071-0.072-0.108-0.108    c-0.033-0.035-0.067-0.068-0.103-0.103c-0.036-0.037-0.071-0.072-0.108-0.108c-0.035-0.035-0.069-0.07-0.105-0.104    c-0.034-0.037-0.069-0.072-0.105-0.107c-0.035-0.035-0.07-0.07-0.106-0.105c-0.035-0.037-0.07-0.072-0.107-0.107    c-0.034-0.035-0.067-0.068-0.104-0.104c-0.034-0.037-0.07-0.073-0.107-0.108c-0.033-0.036-0.068-0.07-0.104-0.104    c-0.035-0.037-0.071-0.072-0.108-0.108c-0.034-0.035-0.067-0.069-0.104-0.104c-0.035-0.037-0.069-0.072-0.106-0.106    c-0.034-0.037-0.069-0.072-0.106-0.107c-0.035-0.036-0.069-0.071-0.106-0.106c-0.034-0.035-0.069-0.07-0.104-0.104    c-0.035-0.037-0.07-0.071-0.107-0.106c-0.034-0.037-0.069-0.07-0.104-0.104c-0.035-0.037-0.07-0.071-0.107-0.106    c-0.034-0.037-0.069-0.071-0.105-0.105c-0.035-0.037-0.07-0.072-0.107-0.107c-0.033-0.035-0.068-0.07-0.104-0.104    c-0.036-0.037-0.071-0.073-0.108-0.108c-0.035-0.035-0.068-0.068-0.104-0.104c-0.035-0.037-0.069-0.072-0.106-0.107    c-0.035-0.035-0.069-0.07-0.105-0.105c-0.035-0.036-0.07-0.071-0.107-0.105c-0.033-0.037-0.068-0.072-0.104-0.107    c-0.021-0.021-0.038-0.045-0.06-0.065c0.002-1.28-0.555-2.479-1.488-3.458c-0.032-0.037-0.071-0.07-0.105-0.105    c-0.033-0.037-0.072-0.071-0.107-0.108c-0.033-0.036-0.071-0.069-0.105-0.104c-0.033-0.037-0.07-0.07-0.105-0.105    c-0.033-0.037-0.072-0.071-0.107-0.107c-0.032-0.035-0.07-0.068-0.104-0.104c-0.033-0.037-0.072-0.07-0.106-0.106    s-0.072-0.069-0.106-0.106c-0.033-0.036-0.072-0.069-0.105-0.105c-0.033-0.037-0.072-0.07-0.106-0.105    c-0.034-0.037-0.073-0.072-0.108-0.108c-0.031-0.035-0.067-0.065-0.102-0.101c-0.035-0.039-0.076-0.075-0.111-0.113    c-0.033-0.035-0.069-0.066-0.103-0.102c-0.034-0.037-0.071-0.07-0.106-0.106c-0.033-0.037-0.072-0.071-0.107-0.108    c-0.033-0.035-0.07-0.068-0.104-0.104c-0.035-0.039-0.076-0.074-0.111-0.112c-0.032-0.034-0.069-0.067-0.104-0.103    c-0.033-0.036-0.072-0.069-0.105-0.105c-0.034-0.037-0.072-0.07-0.106-0.105c-0.032-0.037-0.071-0.07-0.106-0.106    c-0.033-0.037-0.072-0.071-0.107-0.108c-0.033-0.035-0.07-0.067-0.104-0.104c-0.035-0.036-0.072-0.07-0.107-0.105    c-0.033-0.037-0.072-0.072-0.107-0.107c-0.031-0.036-0.07-0.069-0.104-0.104c-0.033-0.037-0.072-0.07-0.105-0.106    c-0.035-0.037-0.072-0.07-0.106-0.106c-0.033-0.037-0.072-0.07-0.106-0.105c-0.033-0.038-0.072-0.071-0.107-0.108    c-0.033-0.036-0.071-0.069-0.104-0.104c-0.032-0.035-0.071-0.068-0.104-0.104c-0.034-0.038-0.074-0.072-0.11-0.111    c-0.032-0.035-0.069-0.065-0.103-0.102c-0.034-0.037-0.073-0.072-0.108-0.107c-0.033-0.037-0.069-0.069-0.104-0.104    c-0.033-0.037-0.071-0.071-0.106-0.106c-0.034-0.037-0.073-0.072-0.108-0.108c-0.031-0.036-0.07-0.068-0.104-0.104    c-0.035-0.037-0.074-0.072-0.11-0.109c-0.032-0.035-0.069-0.066-0.103-0.103s-0.071-0.069-0.105-0.106    c-0.033-0.036-0.072-0.07-0.107-0.106c-0.032-0.037-0.071-0.069-0.105-0.106c-0.035-0.037-0.074-0.072-0.109-0.109    c-0.033-0.034-0.068-0.064-0.102-0.1c-0.035-0.039-0.075-0.073-0.111-0.111c-0.031-0.036-0.07-0.068-0.104-0.104    c-0.034-0.037-0.072-0.07-0.105-0.106c-0.033-0.037-0.072-0.07-0.106-0.106c-0.034-0.037-0.072-0.07-0.106-0.105    c-0.033-0.037-0.072-0.071-0.107-0.108c-0.033-0.036-0.071-0.067-0.104-0.104c-0.034-0.037-0.073-0.07-0.108-0.106    c-0.032-0.036-0.069-0.069-0.104-0.104c-0.033-0.037-0.072-0.069-0.107-0.106c-0.033-0.036-0.07-0.069-0.104-0.104    c-0.033-0.037-0.072-0.07-0.106-0.106c-0.033-0.037-0.072-0.07-0.105-0.106c-0.034-0.037-0.073-0.07-0.108-0.107    c-0.032-0.036-0.069-0.068-0.104-0.104c-0.034-0.039-0.073-0.072-0.108-0.109c-0.031-0.035-0.07-0.067-0.104-0.104    c-0.033-0.037-0.071-0.07-0.106-0.105c-0.032-0.037-0.071-0.07-0.106-0.107c-0.033-0.037-0.073-0.072-0.108-0.109    c-0.032-0.033-0.067-0.065-0.103-0.101c-0.033-0.038-0.072-0.073-0.108-0.11c-0.034-0.037-0.073-0.07-0.108-0.107    c-0.033-0.036-0.07-0.068-0.104-0.104c-0.032-0.037-0.069-0.068-0.104-0.104c-0.033-0.037-0.072-0.071-0.107-0.107    c-0.032-0.036-0.071-0.069-0.105-0.106c-0.033-0.036-0.072-0.069-0.105-0.105c-0.035-0.038-0.074-0.072-0.11-0.109    c-0.031-0.035-0.067-0.065-0.101-0.101c-0.035-0.038-0.075-0.073-0.11-0.11c-0.033-0.037-0.071-0.068-0.104-0.104    c-0.033-0.037-0.072-0.069-0.105-0.106c-0.034-0.037-0.072-0.069-0.105-0.105c-0.033-0.037-0.072-0.07-0.106-0.105    c-0.035-0.039-0.074-0.074-0.11-0.111c-0.031-0.033-0.068-0.064-0.102-0.1c-0.033-0.037-0.072-0.072-0.108-0.109    c-0.032-0.036-0.071-0.07-0.106-0.106c-0.032-0.036-0.07-0.069-0.104-0.104c-0.034-0.036-0.073-0.07-0.108-0.107    c-0.031-0.034-0.067-0.066-0.101-0.102c-0.036-0.039-0.078-0.075-0.114-0.115c-0.031-0.034-0.068-0.064-0.101-0.098    c-0.034-0.039-0.072-0.071-0.106-0.108c-0.033-0.036-0.072-0.069-0.105-0.104c-0.035-0.039-0.075-0.074-0.112-0.113    c-0.03-0.033-0.065-0.063-0.099-0.098c-0.036-0.039-0.077-0.076-0.114-0.115c-0.03-0.032-0.065-0.063-0.099-0.098    c-0.035-0.039-0.076-0.074-0.113-0.113c-0.032-0.035-0.069-0.067-0.104-0.103c-0.033-0.037-0.072-0.071-0.107-0.108    c-0.032-0.035-0.07-0.067-0.104-0.104c-0.035-0.037-0.072-0.071-0.107-0.107c-0.033-0.037-0.072-0.07-0.106-0.105    c-0.034-0.037-0.073-0.071-0.108-0.108c-0.031-0.036-0.069-0.067-0.104-0.103c-0.035-0.039-0.074-0.074-0.111-0.111    c-0.031-0.036-0.068-0.068-0.103-0.104c-0.034-0.037-0.071-0.069-0.106-0.105c-0.033-0.037-0.072-0.07-0.105-0.105    c-0.034-0.037-0.072-0.07-0.105-0.106c-0.035-0.037-0.074-0.071-0.108-0.108c-0.032-0.035-0.069-0.066-0.103-0.102    c-0.035-0.039-0.076-0.075-0.113-0.114c-0.03-0.032-0.066-0.063-0.1-0.098c-0.035-0.039-0.076-0.075-0.113-0.113    c-0.03-0.034-0.067-0.065-0.101-0.103c-0.035-0.036-0.073-0.071-0.11-0.108c-0.031-0.036-0.069-0.067-0.104-0.104    c-0.033-0.037-0.072-0.069-0.105-0.105c-0.033-0.037-0.072-0.07-0.106-0.105c-0.034-0.037-0.073-0.071-0.108-0.108    c-0.031-0.035-0.068-0.065-0.102-0.101c-0.035-0.039-0.075-0.074-0.112-0.113c-0.03-0.034-0.067-0.065-0.101-0.1    c-0.034-0.039-0.074-0.074-0.109-0.111c-0.033-0.035-0.07-0.068-0.104-0.104c-0.037-0.039-0.076-0.074-0.113-0.113    c-0.031-0.033-0.066-0.063-0.1-0.098c-0.033-0.038-0.072-0.072-0.108-0.109c-0.033-0.035-0.071-0.068-0.104-0.104    c-0.035-0.037-0.072-0.069-0.106-0.106s-0.073-0.07-0.108-0.107c-0.031-0.035-0.068-0.068-0.104-0.104    c-0.034-0.037-0.072-0.072-0.107-0.107c-0.033-0.038-0.072-0.072-0.109-0.108c-0.031-0.036-0.07-0.069-0.104-0.104    c-0.032-0.036-0.069-0.069-0.104-0.104c-0.032-0.036-0.071-0.069-0.105-0.106c-0.034-0.036-0.072-0.069-0.105-0.105    c-0.033-0.037-0.072-0.07-0.106-0.105c-0.034-0.037-0.073-0.071-0.108-0.107c-0.031-0.036-0.07-0.068-0.104-0.104    c-0.034-0.037-0.072-0.07-0.107-0.106c-0.033-0.038-0.074-0.073-0.109-0.11c-0.031-0.035-0.067-0.065-0.101-0.1    c-0.034-0.039-0.075-0.074-0.112-0.112c-0.03-0.034-0.066-0.065-0.1-0.1c-0.037-0.041-0.079-0.078-0.117-0.118    c-0.029-0.032-0.064-0.063-0.096-0.094c-0.035-0.039-0.075-0.075-0.111-0.113c-0.033-0.035-0.07-0.066-0.104-0.104    c-0.034-0.037-0.072-0.07-0.107-0.106c-0.033-0.037-0.072-0.069-0.105-0.106c-0.035-0.037-0.075-0.072-0.111-0.11    c-0.031-0.034-0.066-0.065-0.1-0.099c-0.035-0.039-0.075-0.074-0.111-0.111c-0.032-0.036-0.068-0.068-0.104-0.104    c-0.033-0.037-0.071-0.07-0.106-0.106c-0.034-0.037-0.073-0.071-0.108-0.108c-0.031-0.035-0.07-0.068-0.104-0.104    c-0.034-0.037-0.073-0.071-0.107-0.108c-0.033-0.036-0.072-0.069-0.105-0.104c-0.033-0.037-0.072-0.07-0.106-0.106    c-0.034-0.037-0.073-0.071-0.106-0.106c-0.033-0.037-0.072-0.069-0.106-0.105c-0.032-0.037-0.071-0.071-0.106-0.107    c-0.033-0.035-0.071-0.068-0.104-0.104c-0.032-0.036-0.069-0.069-0.104-0.104c-0.035-0.039-0.074-0.074-0.11-0.111    c-0.032-0.035-0.069-0.068-0.104-0.104c-0.033-0.038-0.074-0.071-0.109-0.11c-0.031-0.032-0.066-0.063-0.1-0.098    c-0.035-0.039-0.074-0.074-0.111-0.111c-0.032-0.037-0.069-0.068-0.104-0.104c-0.035-0.038-0.074-0.073-0.111-0.11    c-0.031-0.035-0.067-0.066-0.102-0.102c-0.033-0.038-0.072-0.072-0.107-0.107c-0.033-0.037-0.071-0.07-0.106-0.106    c-0.033-0.037-0.072-0.071-0.106-0.107c-0.033-0.036-0.072-0.069-0.105-0.106c-0.034-0.036-0.073-0.069-0.107-0.106    c-0.033-0.034-0.07-0.065-0.103-0.103c-0.035-0.037-0.074-0.072-0.11-0.109c-0.033-0.037-0.072-0.07-0.107-0.105    c-0.03-0.035-0.068-0.067-0.102-0.103c-0.033-0.037-0.072-0.071-0.105-0.106c-0.035-0.039-0.076-0.074-0.112-0.112    c-0.032-0.035-0.069-0.067-0.103-0.103c-0.035-0.037-0.072-0.07-0.106-0.105c-0.033-0.037-0.072-0.07-0.106-0.106    c-0.033-0.036-0.072-0.069-0.105-0.106c-0.035-0.037-0.074-0.072-0.11-0.109c-0.03-0.034-0.067-0.064-0.099-0.1    c-0.036-0.037-0.076-0.073-0.112-0.111c-0.032-0.037-0.071-0.07-0.106-0.105c-0.031-0.035-0.068-0.066-0.103-0.103    c-0.034-0.038-0.073-0.073-0.11-0.11c-0.031-0.035-0.07-0.068-0.104-0.104c-0.032-0.035-0.069-0.067-0.103-0.103    c-0.035-0.039-0.076-0.074-0.112-0.113c-0.032-0.035-0.07-0.068-0.104-0.104c-0.033-0.035-0.07-0.068-0.104-0.105    c-0.033-0.035-0.07-0.067-0.104-0.104c-0.033-0.037-0.072-0.07-0.107-0.107c-0.033-0.037-0.071-0.069-0.104-0.104    c-0.034-0.039-0.075-0.073-0.112-0.112c-0.029-0.033-0.065-0.063-0.099-0.098c-0.034-0.039-0.075-0.075-0.112-0.113    c-0.033-0.035-0.068-0.066-0.103-0.102c-0.035-0.039-0.075-0.074-0.11-0.112c-0.033-0.034-0.068-0.065-0.102-0.099    c-0.034-0.038-0.073-0.072-0.107-0.109c-0.035-0.037-0.074-0.07-0.109-0.107c-0.032-0.036-0.07-0.068-0.104-0.104    c-0.033-0.037-0.072-0.071-0.109-0.108c-0.031-0.035-0.069-0.067-0.104-0.104c-0.033-0.037-0.072-0.07-0.105-0.105    c-0.033-0.037-0.071-0.069-0.104-0.104c-0.035-0.038-0.075-0.073-0.11-0.11c-0.031-0.035-0.068-0.068-0.103-0.103    c-0.034-0.038-0.074-0.073-0.11-0.11c-0.031-0.035-0.07-0.068-0.104-0.104c-0.034-0.038-0.074-0.072-0.109-0.108    c-0.031-0.036-0.068-0.067-0.104-0.104c-0.033-0.036-0.072-0.07-0.107-0.107c-0.031-0.035-0.068-0.066-0.104-0.102    c-0.034-0.039-0.075-0.075-0.111-0.113c-0.033-0.035-0.07-0.066-0.104-0.104c-0.035-0.037-0.072-0.07-0.107-0.106    c-0.032-0.035-0.07-0.068-0.104-0.104c-0.035-0.039-0.076-0.074-0.113-0.113c-0.03-0.032-0.066-0.063-0.098-0.096    c-0.035-0.039-0.074-0.074-0.111-0.111c-0.032-0.036-0.07-0.069-0.104-0.105c-0.034-0.037-0.073-0.072-0.108-0.107    c-0.033-0.037-0.072-0.07-0.106-0.107c-0.032-0.035-0.069-0.066-0.104-0.104c-0.032-0.035-0.07-0.069-0.104-0.104    c-0.034-0.038-0.073-0.072-0.108-0.108c-0.033-0.037-0.072-0.07-0.105-0.105c-0.033-0.036-0.071-0.069-0.105-0.105    c-0.033-0.037-0.072-0.07-0.105-0.105c-0.034-0.037-0.073-0.071-0.107-0.107c-0.033-0.035-0.07-0.068-0.104-0.104    c-0.035-0.039-0.075-0.073-0.111-0.111c-0.031-0.034-0.068-0.065-0.102-0.1c-0.033-0.038-0.073-0.073-0.109-0.11    c-0.031-0.036-0.07-0.069-0.104-0.104c-0.035-0.038-0.074-0.072-0.109-0.109c-0.033-0.036-0.071-0.068-0.104-0.104    c-0.033-0.036-0.072-0.07-0.105-0.105c-0.034-0.037-0.073-0.071-0.107-0.107c-0.033-0.037-0.07-0.07-0.104-0.105    c-0.034-0.038-0.074-0.073-0.11-0.11c-0.031-0.036-0.07-0.068-0.104-0.103c-0.033-0.037-0.071-0.07-0.106-0.106    c-0.032-0.037-0.071-0.071-0.106-0.107c-0.033-0.036-0.071-0.07-0.106-0.106c-0.03-0.035-0.067-0.066-0.101-0.101    c-0.037-0.04-0.078-0.077-0.116-0.116c-0.031-0.035-0.068-0.065-0.101-0.1c-0.033-0.037-0.072-0.07-0.106-0.106    c-0.034-0.039-0.074-0.074-0.11-0.111c-0.031-0.035-0.068-0.066-0.101-0.1c-0.035-0.038-0.074-0.072-0.109-0.109    c-0.032-0.037-0.071-0.07-0.104-0.105c-0.033-0.037-0.072-0.07-0.106-0.107s-0.073-0.071-0.108-0.108    c-0.033-0.037-0.07-0.07-0.104-0.105c-0.033-0.037-0.071-0.07-0.104-0.105c-0.033-0.037-0.072-0.07-0.106-0.106    c-0.034-0.038-0.073-0.071-0.108-0.108c-0.033-0.036-0.072-0.07-0.105-0.105c-0.032-0.036-0.07-0.068-0.104-0.104    c-0.035-0.037-0.072-0.071-0.107-0.108c-0.034-0.037-0.072-0.071-0.107-0.107c-0.033-0.037-0.072-0.071-0.107-0.107    c-0.032-0.036-0.07-0.069-0.104-0.104c-0.033-0.037-0.072-0.071-0.107-0.107c-0.033-0.036-0.069-0.068-0.104-0.104    c-0.034-0.037-0.072-0.071-0.107-0.107c-0.033-0.037-0.071-0.071-0.106-0.108c-0.034-0.038-0.074-0.072-0.108-0.109    c-0.033-0.035-0.07-0.067-0.104-0.102c-0.034-0.038-0.073-0.072-0.108-0.108c-0.032-0.036-0.069-0.069-0.104-0.104    c-0.032-0.037-0.071-0.071-0.105-0.107c-0.033-0.036-0.072-0.07-0.107-0.106c-0.032-0.037-0.07-0.07-0.104-0.106    c-0.034-0.037-0.073-0.071-0.108-0.107c-0.033-0.038-0.072-0.072-0.108-0.109c-0.031-0.035-0.067-0.066-0.101-0.1    c-0.033-0.037-0.072-0.071-0.107-0.108c-0.033-0.037-0.072-0.07-0.105-0.106c-0.033-0.036-0.072-0.07-0.106-0.106    c-0.034-0.038-0.073-0.072-0.108-0.109c-0.033-0.036-0.072-0.069-0.105-0.105c-0.032-0.036-0.07-0.069-0.104-0.104    c-0.032-0.037-0.071-0.071-0.106-0.107c-0.033-0.037-0.071-0.07-0.106-0.106C41.764,25.007,39.508,24,37,24c-0.557,0-1,0-1,0    c-0.553,0-1,0.448-1,1v5.6c-0.005-0.004-0.012-0.006-0.016-0.011c-0.033-0.039-0.066-0.073-0.105-0.106    c-0.033-0.04-0.068-0.074-0.107-0.108c-0.033-0.038-0.066-0.072-0.104-0.104c-0.034-0.04-0.069-0.075-0.108-0.108    c-0.033-0.038-0.066-0.072-0.104-0.104c-0.033-0.039-0.067-0.073-0.104-0.106c-0.035-0.04-0.07-0.074-0.108-0.108    c-0.033-0.038-0.066-0.071-0.104-0.104c-0.033-0.039-0.068-0.074-0.107-0.107c-0.032-0.039-0.066-0.073-0.104-0.106    c-0.032-0.039-0.067-0.073-0.106-0.107c-0.033-0.039-0.067-0.073-0.106-0.106c-0.032-0.039-0.067-0.073-0.106-0.106    c-0.032-0.039-0.066-0.073-0.104-0.106c-0.033-0.039-0.067-0.073-0.106-0.107c-0.033-0.039-0.066-0.073-0.105-0.106    c-0.033-0.039-0.068-0.073-0.107-0.107c-0.033-0.039-0.066-0.073-0.105-0.106c-0.033-0.038-0.066-0.072-0.105-0.105    c-0.033-0.04-0.068-0.074-0.106-0.107c-0.033-0.039-0.067-0.073-0.105-0.105C32.566,28.143,32.304,28,32,28    c-0.172,0-0.326,0.055-0.467,0.131c-0.005-0.004-0.012-0.007-0.017-0.011c-0.033-0.039-0.067-0.072-0.105-0.105    c-0.034-0.039-0.068-0.073-0.106-0.106c-0.034-0.039-0.067-0.073-0.106-0.106c-0.033-0.039-0.068-0.073-0.107-0.106    c-0.033-0.039-0.067-0.073-0.106-0.106c-0.033-0.039-0.067-0.073-0.106-0.106c-0.033-0.039-0.068-0.072-0.106-0.105    c-0.033-0.039-0.067-0.073-0.105-0.106c-0.033-0.039-0.068-0.073-0.106-0.107c-0.034-0.039-0.068-0.073-0.107-0.106    c-0.033-0.039-0.067-0.073-0.106-0.106c-0.033-0.039-0.067-0.073-0.106-0.106c-0.034-0.039-0.068-0.073-0.107-0.106    c-0.033-0.039-0.067-0.073-0.106-0.106c-0.033-0.038-0.067-0.072-0.105-0.105c-0.034-0.039-0.068-0.073-0.107-0.107    c-0.033-0.039-0.067-0.073-0.106-0.106c-0.033-0.039-0.067-0.073-0.106-0.106c-0.033-0.039-0.067-0.073-0.106-0.106    c-0.033-0.039-0.068-0.073-0.106-0.106c-0.034-0.039-0.068-0.073-0.107-0.106c-0.033-0.039-0.067-0.073-0.106-0.106    c-0.033-0.039-0.067-0.073-0.106-0.106c-0.033-0.039-0.067-0.073-0.106-0.106c-0.034-0.039-0.068-0.073-0.106-0.106    c-0.034-0.039-0.068-0.073-0.107-0.107C28.566,25.143,28.303,25,28,25c-0.552,0-1,0.448-1,1v5.6    c-0.004-0.004-0.011-0.006-0.015-0.01c-0.034-0.039-0.067-0.073-0.106-0.106c-0.034-0.039-0.068-0.073-0.107-0.107    c-0.033-0.039-0.067-0.073-0.106-0.106c-0.033-0.039-0.067-0.073-0.106-0.106c-0.034-0.039-0.068-0.073-0.107-0.107    c-0.033-0.039-0.067-0.073-0.106-0.106c-0.033-0.039-0.067-0.073-0.106-0.106c-0.033-0.039-0.068-0.073-0.107-0.106    c-0.033-0.039-0.067-0.073-0.105-0.106c-0.034-0.039-0.067-0.073-0.106-0.106c-0.033-0.039-0.068-0.073-0.107-0.107    c-0.033-0.039-0.067-0.073-0.106-0.106c-0.033-0.039-0.067-0.073-0.106-0.106c-0.033-0.039-0.067-0.073-0.106-0.106    c-0.033-0.039-0.068-0.073-0.107-0.106c-0.033-0.039-0.067-0.073-0.106-0.105c-0.033-0.039-0.067-0.073-0.106-0.107    c-0.034-0.039-0.068-0.073-0.106-0.106c-0.034-0.04-0.068-0.074-0.107-0.107c-0.033-0.038-0.067-0.072-0.105-0.105    c-0.034-0.039-0.068-0.073-0.106-0.106C24.566,29.143,24.303,29,24,29c-0.552,0-1,0.448-1,1v4.518    c-0.005-0.006-0.011-0.008-0.016-0.012c-0.033-0.039-0.067-0.072-0.105-0.105c-0.034-0.039-0.068-0.073-0.108-0.107    c-0.033-0.038-0.068-0.072-0.106-0.105c-0.033-0.039-0.067-0.072-0.106-0.105c-0.033-0.038-0.068-0.073-0.106-0.105    c-0.033-0.039-0.067-0.072-0.106-0.106c-0.034-0.038-0.068-0.072-0.107-0.104c-0.033-0.039-0.067-0.074-0.106-0.106    c-0.034-0.039-0.068-0.073-0.107-0.106c-0.033-0.039-0.067-0.072-0.106-0.104c-0.033-0.039-0.068-0.073-0.107-0.106    c-0.033-0.039-0.067-0.072-0.106-0.105c-0.034-0.039-0.068-0.073-0.107-0.106c-0.033-0.039-0.067-0.073-0.105-0.106    c-0.033-0.037-0.067-0.072-0.106-0.105c-0.034-0.039-0.068-0.072-0.107-0.107c-0.033-0.037-0.067-0.071-0.106-0.104    c-0.033-0.038-0.067-0.072-0.105-0.104c-0.033-0.039-0.068-0.074-0.106-0.106c-0.034-0.039-0.068-0.074-0.107-0.107    c-0.033-0.039-0.067-0.073-0.105-0.105c-0.183-0.214-0.446-0.357-0.75-0.357c-0.552,0-1,0.448-1,1v4.6    c-0.005-0.004-0.011-0.006-0.016-0.01c-0.033-0.039-0.067-0.074-0.106-0.106c-0.034-0.039-0.068-0.073-0.107-0.107    c-0.033-0.038-0.067-0.071-0.106-0.104c-0.033-0.039-0.067-0.073-0.105-0.106c-0.034-0.039-0.069-0.074-0.108-0.107    c-0.033-0.039-0.066-0.071-0.104-0.104c-0.033-0.039-0.068-0.073-0.107-0.106c-0.033-0.039-0.068-0.073-0.107-0.106    c-0.033-0.039-0.067-0.073-0.106-0.106c-0.033-0.039-0.067-0.071-0.106-0.104c-0.033-0.039-0.067-0.073-0.106-0.106    c-0.034-0.039-0.068-0.072-0.107-0.105c-0.033-0.039-0.067-0.073-0.106-0.105c-0.033-0.039-0.067-0.074-0.106-0.106    c-0.033-0.039-0.067-0.073-0.106-0.106c-0.034-0.039-0.068-0.072-0.107-0.105c-0.033-0.039-0.067-0.073-0.106-0.107    c-0.033-0.038-0.067-0.07-0.105-0.104c-0.033-0.039-0.067-0.073-0.106-0.106c-0.033-0.039-0.068-0.073-0.107-0.106    c-0.033-0.039-0.067-0.072-0.106-0.105c-0.184-0.214-0.446-0.355-0.75-0.355c-0.552,0-1,0.447-1,1V39    c0,0.305,0.143,0.566,0.356,0.75c0.033,0.039,0.068,0.073,0.106,0.105c0.034,0.039,0.068,0.074,0.106,0.106    c0.033,0.039,0.068,0.073,0.106,0.106c0.034,0.039,0.068,0.072,0.107,0.105c0.033,0.039,0.067,0.072,0.106,0.105    c0.033,0.039,0.068,0.072,0.107,0.106c0.033,0.038,0.067,0.072,0.105,0.104c0.034,0.039,0.068,0.074,0.107,0.107    c0.034,0.038,0.067,0.072,0.106,0.105c0.033,0.039,0.068,0.072,0.106,0.105c0.034,0.039,0.067,0.073,0.106,0.106    c0.033,0.039,0.068,0.073,0.107,0.106c0.033,0.039,0.067,0.071,0.106,0.104c0.033,0.039,0.067,0.073,0.106,0.106    c0.033,0.039,0.067,0.072,0.106,0.105c0.034,0.039,0.068,0.073,0.107,0.107c0.033,0.037,0.067,0.07,0.105,0.104    c0.034,0.039,0.068,0.073,0.107,0.105c0.034,0.039,0.068,0.074,0.107,0.106c0.033,0.039,0.067,0.073,0.106,0.106    c0.033,0.039,0.067,0.072,0.106,0.105c0.033,0.039,0.068,0.073,0.107,0.106c0.033,0.039,0.067,0.073,0.106,0.106    c0.033,0.039,0.067,0.071,0.106,0.104c0.033,0.039,0.067,0.073,0.106,0.106c0.033,0.039,0.067,0.072,0.106,0.105    c0.034,0.039,0.068,0.073,0.106,0.105c0.034,0.039,0.068,0.074,0.106,0.106c0.033,0.039,0.068,0.073,0.106,0.106    c0.033,0.039,0.068,0.072,0.106,0.105c0.034,0.039,0.068,0.073,0.107,0.106c0.033,0.038,0.067,0.071,0.105,0.104    c0.034,0.039,0.068,0.073,0.107,0.106c0.033,0.039,0.067,0.073,0.106,0.106c0.034,0.039,0.068,0.072,0.107,0.105    c0.033,0.039,0.067,0.072,0.106,0.105c0.033,0.039,0.068,0.073,0.107,0.106c0.033,0.039,0.067,0.073,0.106,0.106    c0.033,0.039,0.067,0.072,0.106,0.105c0.033,0.038,0.067,0.072,0.105,0.105c0.034,0.039,0.068,0.074,0.108,0.107    c0.033,0.038,0.066,0.071,0.104,0.104c0.034,0.041,0.069,0.076,0.109,0.109c0.033,0.038,0.066,0.071,0.104,0.104    c0.034,0.038,0.068,0.073,0.107,0.106c0.033,0.039,0.067,0.073,0.106,0.106c0.033,0.039,0.067,0.073,0.106,0.106    c0.034,0.039,0.068,0.072,0.107,0.106c0.033,0.038,0.067,0.071,0.106,0.104c0.034,0.039,0.068,0.072,0.106,0.105    c0.034,0.039,0.068,0.073,0.107,0.105c0.033,0.039,0.067,0.074,0.105,0.105c0.033,0.04,0.068,0.074,0.107,0.107    c0.033,0.039,0.067,0.072,0.105,0.104c0.034,0.039,0.068,0.074,0.108,0.108c0.033,0.037,0.067,0.07,0.106,0.104    c0.033,0.039,0.067,0.073,0.106,0.106c0.033,0.039,0.068,0.073,0.106,0.106c0.033,0.039,0.068,0.072,0.106,0.105    c0.033,0.039,0.067,0.072,0.106,0.105c0.033,0.039,0.067,0.072,0.105,0.105c0.034,0.039,0.068,0.074,0.108,0.107    c0.033,0.039,0.067,0.072,0.106,0.105c0.034,0.038,0.068,0.072,0.106,0.105c0.034,0.039,0.067,0.072,0.106,0.105    c0.033,0.039,0.067,0.073,0.106,0.105c0.033,0.039,0.067,0.074,0.106,0.106c0.033,0.039,0.067,0.073,0.105,0.106    c0.034,0.039,0.069,0.072,0.108,0.107c0.033,0.037,0.066,0.07,0.104,0.104c0.034,0.04,0.068,0.074,0.108,0.107    c0.033,0.039,0.067,0.072,0.105,0.105c0.034,0.039,0.068,0.072,0.107,0.105c0.033,0.039,0.067,0.073,0.106,0.106    c0.033,0.039,0.067,0.073,0.106,0.106c0.034,0.039,0.068,0.072,0.106,0.105c0.034,0.039,0.068,0.073,0.107,0.105    c0.033,0.039,0.067,0.072,0.106,0.105c0.033,0.039,0.067,0.073,0.106,0.105c0.034,0.039,0.068,0.074,0.107,0.107    c0.034,0.039,0.068,0.072,0.107,0.106c0.033,0.038,0.067,0.071,0.105,0.104c0.034,0.039,0.068,0.073,0.107,0.106    c0.033,0.039,0.067,0.073,0.106,0.104c0.034,0.039,0.068,0.074,0.107,0.107c0.033,0.038,0.067,0.072,0.106,0.105    c0.033,0.039,0.068,0.072,0.106,0.105c0.033,0.039,0.068,0.073,0.106,0.105c0.033,0.039,0.067,0.072,0.105,0.105    c0.034,0.04,0.069,0.075,0.109,0.107c0.033,0.039,0.066,0.072,0.104,0.104c0.034,0.039,0.069,0.074,0.109,0.108    c0.033,0.037,0.066,0.07,0.104,0.104c0.034,0.04,0.068,0.074,0.107,0.108c0.034,0.038,0.068,0.071,0.107,0.104    c0.033,0.039,0.067,0.073,0.105,0.105c0.034,0.039,0.068,0.074,0.107,0.107c0.033,0.039,0.067,0.071,0.105,0.104    c0.034,0.039,0.069,0.074,0.108,0.108c0.033,0.037,0.066,0.07,0.104,0.104c0.034,0.039,0.068,0.073,0.106,0.105    c0.033,0.039,0.067,0.074,0.106,0.106c0.034,0.039,0.068,0.073,0.107,0.106c0.034,0.039,0.068,0.072,0.106,0.105    c0.033,0.039,0.067,0.073,0.106,0.106c0.034,0.039,0.068,0.073,0.107,0.106c0.033,0.039,0.066,0.071,0.104,0.104    c0.034,0.04,0.068,0.074,0.108,0.107c0.033,0.039,0.067,0.072,0.106,0.105c0.033,0.039,0.067,0.072,0.106,0.105    c0.033,0.039,0.067,0.073,0.106,0.106c0.033,0.039,0.068,0.073,0.106,0.106c0.034,0.039,0.068,0.072,0.107,0.106    c0.033,0.038,0.066,0.071,0.104,0.104c0.034,0.039,0.068,0.074,0.108,0.106c0.033,0.039,0.068,0.073,0.107,0.107    c0.033,0.036,0.066,0.071,0.104,0.104c0.034,0.038,0.069,0.073,0.108,0.107c0.034,0.039,0.068,0.072,0.107,0.105    c0.033,0.039,0.067,0.072,0.106,0.105c0.033,0.039,0.067,0.072,0.105,0.105c0.034,0.039,0.069,0.073,0.108,0.107    c0.033,0.038,0.067,0.071,0.105,0.104c0.034,0.039,0.068,0.074,0.107,0.106c0.033,0.039,0.067,0.073,0.106,0.106    c0.033,0.039,0.067,0.072,0.106,0.104c0.034,0.04,0.068,0.074,0.108,0.108c0.033,0.037,0.066,0.07,0.104,0.104    c0.034,0.039,0.069,0.074,0.108,0.108c0.033,0.038,0.067,0.071,0.106,0.104c0.033,0.039,0.068,0.072,0.106,0.105    c0.033,0.039,0.067,0.072,0.106,0.105c0.033,0.039,0.067,0.073,0.106,0.106c0.034,0.039,0.068,0.073,0.107,0.106    c0.033,0.039,0.068,0.072,0.107,0.105c0.033,0.039,0.067,0.073,0.106,0.105c0.033,0.039,0.067,0.072,0.105,0.105    c0.033,0.039,0.068,0.073,0.106,0.105c0.033,0.039,0.068,0.074,0.106,0.106c0.033,0.039,0.068,0.073,0.106,0.106    c0.034,0.039,0.068,0.072,0.108,0.107c0.033,0.037,0.066,0.07,0.104,0.104c0.034,0.04,0.068,0.074,0.108,0.107    c0.033,0.039,0.068,0.073,0.107,0.106c0.033,0.039,0.066,0.071,0.105,0.104c0.034,0.039,0.068,0.073,0.107,0.107    c0.034,0.038,0.068,0.072,0.107,0.105c0.033,0.039,0.067,0.072,0.105,0.105c0.033,0.038,0.067,0.073,0.106,0.105    c0.034,0.039,0.067,0.074,0.106,0.106c0.033,0.038,0.068,0.072,0.106,0.106c0.034,0.039,0.068,0.072,0.107,0.105    c0.033,0.038,0.067,0.072,0.106,0.105c0.033,0.039,0.067,0.072,0.106,0.105c0.033,0.039,0.067,0.073,0.106,0.106    c0.033,0.039,0.067,0.073,0.106,0.106c0.034,0.039,0.068,0.072,0.107,0.105c0.033,0.038,0.066,0.072,0.104,0.104    c0.034,0.041,0.069,0.075,0.109,0.109c0.033,0.038,0.067,0.071,0.105,0.104c0.033,0.039,0.067,0.074,0.106,0.106    c0.033,0.039,0.067,0.073,0.106,0.106c0.032,0.039,0.067,0.072,0.106,0.105c0.033,0.039,0.067,0.073,0.106,0.107    c0.032,0.037,0.065,0.07,0.104,0.104c0.033,0.04,0.068,0.075,0.107,0.109c0.033,0.038,0.066,0.07,0.105,0.104    c0.032,0.039,0.066,0.073,0.105,0.106c0.033,0.039,0.066,0.073,0.105,0.106c0.033,0.039,0.067,0.072,0.106,0.105    c0.034,0.039,0.067,0.073,0.106,0.107c0.033,0.037,0.065,0.07,0.104,0.104c0.034,0.04,0.07,0.075,0.11,0.109    c0.033,0.037,0.066,0.072,0.104,0.104c0.033,0.039,0.067,0.073,0.106,0.106c0.032,0.039,0.067,0.072,0.106,0.105    c0.032,0.039,0.066,0.073,0.105,0.106c0.033,0.038,0.066,0.071,0.104,0.104c0.034,0.039,0.068,0.074,0.108,0.108    c0.033,0.038,0.067,0.071,0.106,0.104c0.033,0.039,0.066,0.072,0.105,0.106c0.033,0.038,0.066,0.071,0.105,0.104    c0.033,0.039,0.067,0.074,0.106,0.107c0.033,0.038,0.067,0.072,0.104,0.105c0.033,0.037,0.068,0.072,0.106,0.105    c0.033,0.039,0.068,0.073,0.107,0.105c0.032,0.039,0.067,0.074,0.104,0.106c0.034,0.039,0.068,0.073,0.107,0.106    c0.033,0.039,0.066,0.072,0.105,0.105c0.032,0.038,0.066,0.072,0.105,0.105c0.033,0.039,0.066,0.072,0.105,0.105    c0.033,0.039,0.068,0.073,0.107,0.106c0.032,0.039,0.066,0.071,0.104,0.104c0.035,0.041,0.069,0.074,0.108,0.108    c0.033,0.038,0.067,0.071,0.104,0.104c0.033,0.039,0.068,0.074,0.107,0.106c0.033,0.039,0.067,0.072,0.105,0.104    c0.033,0.039,0.066,0.074,0.105,0.106c0.033,0.038,0.067,0.072,0.105,0.104c0.033,0.041,0.068,0.074,0.107,0.107    c0.032,0.039,0.067,0.073,0.105,0.106c0.033,0.038,0.066,0.071,0.105,0.104c0.033,0.039,0.068,0.074,0.107,0.108    c0.033,0.038,0.066,0.071,0.105,0.104c0.033,0.039,0.066,0.072,0.105,0.105c0.033,0.039,0.066,0.072,0.105,0.105    c0.033,0.039,0.066,0.073,0.106,0.106c0.033,0.039,0.067,0.073,0.106,0.106c0.033,0.039,0.066,0.072,0.104,0.104    c0.034,0.039,0.068,0.074,0.107,0.106c0.032,0.039,0.065,0.072,0.104,0.104c0.033,0.04,0.068,0.075,0.108,0.108    c0.032,0.037,0.065,0.072,0.104,0.105c0.032,0.038,0.066,0.072,0.105,0.105c0.033,0.039,0.068,0.072,0.107,0.107    c0.033,0.037,0.066,0.071,0.104,0.104c0.033,0.038,0.067,0.073,0.106,0.106c0.033,0.037,0.066,0.071,0.105,0.104    c0.033,0.039,0.067,0.073,0.107,0.106c0.033,0.039,0.066,0.072,0.104,0.105c0.033,0.039,0.067,0.073,0.106,0.105    c0.033,0.039,0.068,0.074,0.107,0.106c0.032,0.039,0.065,0.073,0.104,0.104c0.032,0.041,0.067,0.074,0.106,0.108    c0.033,0.038,0.067,0.072,0.105,0.105c0.033,0.038,0.068,0.073,0.107,0.106c0.033,0.037,0.066,0.071,0.104,0.104    c0.033,0.038,0.067,0.071,0.104,0.104c0.035,0.041,0.069,0.075,0.109,0.109c0.032,0.037,0.064,0.07,0.104,0.104    c0.035,0.039,0.068,0.074,0.107,0.107c0.033,0.038,0.067,0.072,0.105,0.105c0.033,0.039,0.068,0.074,0.107,0.107    c0.032,0.038,0.066,0.071,0.104,0.104c0.032,0.039,0.067,0.074,0.106,0.107c0.032,0.039,0.066,0.073,0.105,0.106    c0.033,0.038,0.068,0.073,0.107,0.106c0.033,0.038,0.066,0.072,0.104,0.105c0.033,0.038,0.067,0.072,0.106,0.105    c0.033,0.039,0.067,0.073,0.106,0.106c0.033,0.038,0.067,0.071,0.104,0.104c0.033,0.039,0.067,0.073,0.106,0.106    c0.033,0.039,0.067,0.073,0.106,0.106c0.033,0.039,0.066,0.072,0.105,0.105c0.033,0.039,0.068,0.073,0.107,0.105    c0.033,0.039,0.066,0.074,0.105,0.106c0.032,0.038,0.067,0.072,0.105,0.104c0.033,0.039,0.066,0.074,0.105,0.106    c0.033,0.039,0.067,0.073,0.106,0.106c0.033,0.039,0.067,0.072,0.106,0.105c0.033,0.039,0.066,0.073,0.105,0.106    c0.033,0.039,0.066,0.073,0.105,0.106c0.033,0.039,0.068,0.073,0.108,0.106c0.032,0.038,0.066,0.071,0.104,0.104    c0.033,0.037,0.066,0.072,0.104,0.105c0.034,0.039,0.068,0.073,0.108,0.107c0.031,0.037,0.066,0.072,0.104,0.104    c0.034,0.04,0.068,0.074,0.107,0.107c0.033,0.039,0.066,0.072,0.105,0.105c0.034,0.039,0.068,0.073,0.107,0.107    c0.033,0.037,0.066,0.072,0.105,0.105c0.033,0.039,0.066,0.071,0.105,0.105c0.033,0.038,0.066,0.072,0.105,0.104    c0.033,0.039,0.066,0.074,0.105,0.107c0.033,0.039,0.066,0.072,0.105,0.105c0.033,0.039,0.068,0.073,0.107,0.107    c0.033,0.038,0.066,0.071,0.105,0.104c0.033,0.039,0.068,0.074,0.107,0.107c0.032,0.039,0.066,0.072,0.104,0.105    c0.032,0.039,0.067,0.072,0.106,0.105c0.032,0.039,0.066,0.073,0.105,0.106c0.033,0.038,0.066,0.073,0.105,0.106    c0.033,0.038,0.067,0.072,0.106,0.105c0.034,0.039,0.067,0.072,0.106,0.107c0.033,0.037,0.067,0.07,0.105,0.104    c0.033,0.039,0.066,0.072,0.105,0.105c0.033,0.039,0.067,0.073,0.106,0.106c0.033,0.039,0.067,0.073,0.106,0.106    c0.033,0.039,0.066,0.072,0.105,0.105c0.033,0.039,0.067,0.073,0.106,0.105c0.032,0.039,0.067,0.074,0.106,0.106    c0.033,0.039,0.067,0.073,0.106,0.106c0.032,0.037,0.065,0.072,0.104,0.104c0.032,0.038,0.066,0.072,0.105,0.105    c0.033,0.038,0.066,0.073,0.105,0.106c0.033,0.039,0.067,0.073,0.106,0.106c0.034,0.039,0.067,0.073,0.106,0.106    c0.033,0.039,0.067,0.072,0.106,0.106c0.033,0.038,0.067,0.072,0.106,0.104c0.033,0.039,0.066,0.072,0.104,0.105    c0.034,0.039,0.067,0.073,0.106,0.105c0.033,0.039,0.066,0.074,0.105,0.106c0.033,0.039,0.067,0.073,0.106,0.106    c0.032,0.039,0.067,0.072,0.106,0.105c0.032,0.039,0.067,0.073,0.106,0.106c0.033,0.038,0.067,0.073,0.104,0.106    c0.035,0.039,0.068,0.072,0.106,0.105c0.034,0.039,0.067,0.072,0.106,0.105c0.033,0.039,0.066,0.072,0.105,0.105    c0.033,0.039,0.068,0.074,0.107,0.107C47.464,71.857,47.727,72,48.029,72c0.552,0,1-0.447,1-1v-1.6    c0.005,0.004,0.011,0.007,0.016,0.011c0.033,0.039,0.066,0.073,0.105,0.106c0.033,0.039,0.068,0.072,0.107,0.106    c0.033,0.038,0.067,0.071,0.105,0.104c0.033,0.039,0.068,0.072,0.105,0.105c0.033,0.039,0.067,0.073,0.106,0.105    c0.032,0.039,0.067,0.074,0.106,0.106c0.032,0.039,0.066,0.073,0.105,0.106c0.033,0.039,0.066,0.072,0.105,0.104    c0.032,0.04,0.067,0.074,0.106,0.108c0.033,0.037,0.067,0.072,0.106,0.105c0.033,0.038,0.066,0.072,0.105,0.105    c0.033,0.038,0.066,0.072,0.105,0.105c0.033,0.039,0.066,0.072,0.105,0.105c0.033,0.039,0.066,0.072,0.105,0.105    c0.033,0.039,0.068,0.073,0.106,0.106c0.033,0.039,0.068,0.073,0.107,0.106c0.032,0.039,0.067,0.072,0.104,0.105    c0.034,0.039,0.068,0.073,0.106,0.105c0.034,0.039,0.067,0.074,0.106,0.106c0.033,0.038,0.066,0.072,0.105,0.105    c0.033,0.038,0.068,0.073,0.107,0.106C51.464,71.857,51.727,72,52.029,72c0.552,0,1-0.447,1-1v-1.6    c0.005,0.004,0.011,0.007,0.016,0.011c0.033,0.039,0.066,0.073,0.105,0.106c0.033,0.039,0.068,0.072,0.107,0.105    c0.033,0.039,0.067,0.072,0.105,0.105c0.033,0.039,0.066,0.072,0.105,0.105c0.033,0.039,0.067,0.073,0.106,0.105    c0.032,0.039,0.067,0.074,0.106,0.107c0.032,0.038,0.066,0.072,0.105,0.105c0.033,0.037,0.066,0.072,0.105,0.105    c0.033,0.039,0.067,0.073,0.106,0.106c0.033,0.038,0.067,0.073,0.106,0.106c0.033,0.038,0.066,0.072,0.105,0.105    c0.033,0.038,0.066,0.072,0.105,0.105c0.033,0.039,0.066,0.072,0.105,0.105c0.033,0.039,0.066,0.072,0.105,0.105    c0.033,0.039,0.068,0.073,0.106,0.106c0.033,0.039,0.068,0.073,0.107,0.106c0.032,0.039,0.067,0.072,0.104,0.105    c0.034,0.039,0.068,0.073,0.106,0.105c0.034,0.039,0.067,0.074,0.106,0.106c0.033,0.038,0.066,0.072,0.105,0.105    c0.033,0.038,0.068,0.073,0.107,0.106C55.464,71.857,55.727,72,56.029,72c0.552,0,1-0.447,1-1v-1.6    c0.005,0.004,0.011,0.007,0.016,0.011c0.033,0.039,0.066,0.073,0.105,0.106c0.033,0.039,0.067,0.072,0.106,0.105    c0.033,0.039,0.068,0.072,0.106,0.105c0.033,0.039,0.066,0.072,0.104,0.105c0.034,0.039,0.068,0.073,0.108,0.107    c0.031,0.037,0.066,0.072,0.104,0.104c0.034,0.04,0.068,0.074,0.107,0.107c0.033,0.039,0.066,0.072,0.105,0.105    c0.033,0.039,0.066,0.073,0.105,0.106c0.033,0.038,0.068,0.073,0.105,0.106c0.035,0.038,0.068,0.072,0.107,0.105    c0.033,0.038,0.066,0.072,0.105,0.105c0.033,0.039,0.067,0.072,0.106,0.106c0.033,0.038,0.065,0.071,0.104,0.104    c0.033,0.039,0.068,0.073,0.106,0.106c0.033,0.039,0.068,0.073,0.107,0.106c0.032,0.039,0.067,0.072,0.104,0.105    c0.034,0.039,0.068,0.073,0.106,0.105c0.034,0.039,0.067,0.074,0.106,0.106c0.033,0.038,0.066,0.072,0.105,0.104    c0.033,0.039,0.068,0.074,0.107,0.107C59.464,71.857,59.727,72,60.029,72c0.552,0,1-0.447,1-1v-1.6    c0.005,0.004,0.011,0.007,0.016,0.011c0.033,0.039,0.066,0.073,0.105,0.106c0.033,0.039,0.067,0.072,0.106,0.105    c0.033,0.039,0.068,0.072,0.106,0.107c0.033,0.037,0.068,0.07,0.105,0.104c0.033,0.039,0.067,0.073,0.105,0.105    c0.033,0.039,0.066,0.072,0.105,0.106c0.033,0.039,0.068,0.073,0.107,0.106c0.033,0.039,0.066,0.072,0.105,0.105    c0.033,0.039,0.067,0.073,0.106,0.106c0.033,0.038,0.067,0.073,0.104,0.106c0.035,0.037,0.068,0.072,0.107,0.105    c0.033,0.039,0.066,0.072,0.105,0.105c0.033,0.039,0.066,0.072,0.105,0.105c0.033,0.039,0.066,0.072,0.105,0.105    c0.033,0.039,0.068,0.073,0.106,0.106c0.033,0.039,0.068,0.073,0.107,0.106c0.032,0.039,0.067,0.072,0.104,0.105    c0.034,0.039,0.068,0.073,0.106,0.105c0.034,0.039,0.067,0.074,0.106,0.106c0.033,0.038,0.066,0.072,0.105,0.104    c0.033,0.039,0.068,0.074,0.107,0.107C63.464,71.857,63.727,72,64.029,72c0.552,0,1-0.447,1-1v-1.6    c0.005,0.004,0.011,0.007,0.016,0.011c0.033,0.039,0.066,0.073,0.105,0.106c0.033,0.039,0.067,0.072,0.107,0.106    c0.033,0.038,0.066,0.071,0.105,0.104c0.033,0.039,0.066,0.072,0.105,0.105c0.033,0.039,0.067,0.073,0.106,0.105    c0.032,0.039,0.067,0.074,0.106,0.106c0.032,0.039,0.066,0.073,0.105,0.106c0.033,0.039,0.066,0.072,0.105,0.105    c0.033,0.039,0.067,0.073,0.106,0.107c0.033,0.037,0.067,0.072,0.106,0.105c0.033,0.038,0.066,0.072,0.106,0.106    c0.032,0.038,0.065,0.071,0.104,0.104c0.033,0.039,0.067,0.072,0.106,0.105c0.032,0.039,0.066,0.072,0.104,0.105    c0.033,0.039,0.068,0.073,0.106,0.106c0.033,0.039,0.067,0.073,0.106,0.106c0.033,0.039,0.066,0.072,0.105,0.105    c0.033,0.039,0.067,0.073,0.106,0.105c0.032,0.039,0.067,0.074,0.106,0.106c0.033,0.039,0.067,0.072,0.105,0.104    c0.033,0.039,0.066,0.074,0.105,0.107C67.463,71.857,67.727,72,68.029,72h4h2h3c2.209,0,4-1.791,4-4    C81.029,66.868,80.555,65.852,79.8,65.124z" enable-background="new    " fill="url(#SVGID_3_)" opacity="0.2"/></g></g><g id="cloud"><path d="M45,32h-1c2-4-2-8-7-8c-0.557,0-1,0-1,0c-0.553,0-1,0.448-1,1v14c0,0.553,0.447,1,1,1h4h2h3   c2.209,0,4-1.791,4-4S47.209,32,45,32z" fill="#FFFFFF" id="Cloud_1_"/><path d="M20,31.917c-0.552,0-1,0.448-1,1V39c0,0.553,0.448,1,1,1s1-0.447,1-1v-6.083   C21,32.364,20.552,31.917,20,31.917z" fill="#FFFFFF"/><path d="M28,25c-0.552,0-1,0.448-1,1v13c0,0.553,0.448,1,1,1s1-0.447,1-1V26C29,25.448,28.552,25,28,25z" fill="#FFFFFF"/><path d="M32,28c-0.552,0-1,0.448-1,1v10c0,0.553,0.448,1,1,1s1-0.447,1-1V29C33,28.448,32.552,28,32,28z" fill="#FFFFFF"/><path d="M24,29c-0.552,0-1,0.448-1,1v9c0,0.553,0.448,1,1,1s1-0.447,1-1v-9C25,29.448,24.552,29,24,29z" fill="#FFFFFF"/><path d="M16,34.917c-0.552,0-1,0.448-1,1V39c0,0.553,0.448,1,1,1s1-0.447,1-1v-3.083   C17,35.364,16.552,34.917,16,34.917z" fill="#FFFFFF"/></g></svg>