<?xml version="1.0" standalone="no"?>
<!DOCTYPE svg PUBLIC "-//W3C//DTD SVG 20010904//EN"
 "http://www.w3.org/TR/2001/REC-SVG-20010904/DTD/svg10.dtd">
<svg version="1.0" xmlns="http://www.w3.org/2000/svg"
 width="500.000000pt" height="500.000000pt" viewBox="0 0 500.000000 500.000000"
 preserveAspectRatio="xMidYMid meet">
<metadata>
Created by potrace 1.11, written by Peter Selinger 2001-2013
</metadata>
<g transform="translate(0.000000,500.000000) scale(0.100000,-0.100000)"
fill="#000000" stroke="none">
<path d="M865 3775 c-236 -20 -305 -32 -460 -77 -77 -23 -164 -46 -192 -51
l-53 -10 0 -67 c0 -37 5 -81 11 -99 10 -28 15 -31 57 -32 26 -1 50 -1 54 0 17
2 41 -57 129 -319 50 -151 116 -331 146 -400 69 -157 69 -161 83 -360 11 -167
24 -222 58 -235 42 -16 53 68 32 234 -6 41 -8 76 -6 78 1 2 29 -12 60 -31 31
-19 79 -40 106 -46 38 -9 51 -17 55 -34 28 -128 45 -746 26 -976 -6 -80 -18
-170 -26 -200 -23 -84 -19 -166 9 -227 25 -54 48 -73 81 -67 60 9 83 161 55
364 -17 118 -24 532 -12 633 16 128 58 289 100 387 l37 85 87 3 87 3 3 -68 c2
-37 0 -113 -5 -168 -11 -148 -10 -172 9 -204 25 -42 57 -55 83 -33 25 21 40
77 35 128 -2 21 -9 80 -14 129 -8 81 -2 196 12 210 5 6 169 27 217 29 21 1 27
-6 38 -44 7 -24 17 -99 21 -166 8 -121 19 -154 48 -154 22 0 44 42 44 85 -1
22 -7 67 -15 100 -8 33 -15 96 -14 140 0 79 0 80 31 100 81 51 177 210 273
455 74 188 85 209 142 267 68 70 124 94 216 95 96 0 151 -24 220 -95 61 -63
69 -79 137 -252 116 -299 218 -452 332 -499 34 -15 35 -17 41 -83 9 -94 8
-275 -3 -421 -8 -120 0 -236 18 -254 26 -26 70 36 90 127 20 94 21 110 10 343
-7 138 -7 236 -2 241 5 4 62 3 127 -3 l118 -11 49 -58 50 -59 0 -79 c0 -84 11
-119 35 -119 18 0 16 -11 19 130 1 83 6 126 19 153 16 36 18 38 59 35 38 -3
43 -6 50 -35 13 -51 48 -38 48 16 0 15 11 19 57 24 32 3 58 5 59 4 1 -1 11
-130 23 -287 53 -694 54 -1142 5 -1335 -31 -120 -18 -245 25 -245 29 0 59 29
77 75 18 49 17 93 -6 360 -14 155 -7 899 10 1075 16 170 39 368 46 395 3 13
15 27 26 31 42 13 133 118 172 199 55 113 124 292 191 495 77 233 114 330 128
332 7 0 17 2 22 3 6 2 27 3 47 4 32 1 38 5 47 34 14 45 20 107 14 138 -4 22
-12 28 -46 33 -23 4 -102 25 -177 48 -169 50 -240 62 -512 83 -316 25 -660 17
-861 -19 -162 -28 -264 -59 -360 -107 -62 -32 -174 -107 -212 -143 -42 -39
-96 -56 -188 -56 -105 0 -126 8 -232 89 -155 119 -297 176 -550 222 -103 19
-163 22 -415 25 -187 1 -354 -3 -455 -11z"/>
</g>
</svg>
